<svg width="35" height="36" viewBox="0 0 35 36" fill="none" xmlns="http://www.w3.org/2000/svg">
<g clip-path="url(#clip0_246_6971)">
<path d="M29.1665 9.46461C28.8543 9.39181 28.5377 9.33968 28.2186 9.30856C27.7799 7.08639 26.6614 5.05549 25.0179 3.49686C23.3744 1.93823 21.2871 0.928928 19.0448 0.6086C16.8025 0.288273 14.5161 0.672757 12.5019 1.70886C10.4877 2.74495 8.84529 4.38144 7.80195 6.3919C7.12957 6.47316 6.46889 6.63221 5.8332 6.86585C4.12838 7.46426 2.65151 8.5774 1.60668 10.0515C0.56186 11.5255 0.000671387 13.2877 0.000671387 15.0945C0.000671387 16.9013 0.56186 18.6635 1.60668 20.1375C2.65151 21.6116 4.12838 22.7247 5.8332 23.3231V20.109C4.94681 19.6015 4.2102 18.8689 3.6979 17.9853C3.18561 17.1016 2.91581 16.0984 2.91581 15.077C2.91581 14.0556 3.18561 13.0524 3.6979 12.1687C4.2102 11.2851 4.94681 10.5525 5.8332 10.045C6.5296 9.63599 7.30514 9.37996 8.1082 9.29398L9.66861 9.13356L10.3978 7.74815C11.1597 6.27208 12.3621 5.06972 13.8383 4.30786C15.3144 3.546 16.991 3.26242 18.6355 3.49644C20.2801 3.73046 21.8111 4.47049 23.0161 5.61386C24.221 6.75724 25.0403 8.24729 25.3603 9.87731L25.7978 12.0648L28.029 12.2252C28.4176 12.2573 28.8002 12.3412 29.1665 12.4746C30.0176 12.7672 30.7561 13.3183 31.2788 14.0508C31.8016 14.7834 32.0826 15.6609 32.0826 16.5609C32.0826 17.4608 31.8016 18.3383 31.2788 19.0709C30.7561 19.8034 30.0176 20.3545 29.1665 20.6471V23.6863C30.8111 23.3583 32.2911 22.4705 33.3546 21.174C34.4182 19.8774 34.9994 18.2524 34.9994 16.5754C34.9994 14.8985 34.4182 13.2734 33.3546 11.9769C32.2911 10.6804 30.8111 9.79254 29.1665 9.46461Z" fill="white"/>
<path d="M8.75 15.0833V22.375H26.25V15.0833H8.75ZM18.9583 19.4583H10.2083V18H18.9583V19.4583ZM21.1458 19.4583C21.0016 19.4583 20.8606 19.4155 20.7407 19.3354C20.6208 19.2553 20.5274 19.1414 20.4722 19.0082C20.417 18.8749 20.4025 18.7283 20.4307 18.5869C20.4588 18.4454 20.5283 18.3155 20.6302 18.2135C20.7322 18.1116 20.8621 18.0421 21.0036 18.014C21.145 17.9859 21.2916 18.0003 21.4249 18.0555C21.5581 18.1107 21.672 18.2041 21.7521 18.324C21.8322 18.444 21.875 18.5849 21.875 18.7291C21.875 18.9225 21.7982 19.108 21.6614 19.2447C21.5247 19.3815 21.3392 19.4583 21.1458 19.4583ZM24.0625 19.4583C23.9183 19.4583 23.7773 19.4155 23.6574 19.3354C23.5375 19.2553 23.444 19.1414 23.3888 19.0082C23.3337 18.8749 23.3192 18.7283 23.3473 18.5869C23.3755 18.4454 23.4449 18.3155 23.5469 18.2135C23.6489 18.1116 23.7788 18.0421 23.9202 18.014C24.0617 17.9859 24.2083 18.0003 24.3415 18.0555C24.4748 18.1107 24.5887 18.2041 24.6688 18.324C24.7489 18.444 24.7917 18.5849 24.7917 18.7291C24.7917 18.9225 24.7148 19.108 24.5781 19.2447C24.4414 19.3815 24.2559 19.4583 24.0625 19.4583ZM8.75 25.2916V32.5833H26.25V25.2916H8.75ZM18.9583 29.6666H10.2083V28.2083H18.9583V29.6666ZM21.1458 29.6666C21.0016 29.6666 20.8606 29.6239 20.7407 29.5438C20.6208 29.4636 20.5274 29.3498 20.4722 29.2165C20.417 29.0833 20.4025 28.9367 20.4307 28.7952C20.4588 28.6538 20.5283 28.5239 20.6302 28.4219C20.7322 28.3199 20.8621 28.2505 21.0036 28.2223C21.145 28.1942 21.2916 28.2086 21.4249 28.2638C21.5581 28.319 21.672 28.4125 21.7521 28.5324C21.8322 28.6523 21.875 28.7933 21.875 28.9375C21.875 29.1309 21.7982 29.3163 21.6614 29.4531C21.5247 29.5898 21.3392 29.6666 21.1458 29.6666ZM24.0625 29.6666C23.9183 29.6666 23.7773 29.6239 23.6574 29.5438C23.5375 29.4636 23.444 29.3498 23.3888 29.2165C23.3337 29.0833 23.3192 28.9367 23.3473 28.7952C23.3755 28.6538 23.4449 28.5239 23.5469 28.4219C23.6489 28.3199 23.7788 28.2505 23.9202 28.2223C24.0617 28.1942 24.2083 28.2086 24.3415 28.2638C24.4748 28.319 24.5887 28.4125 24.6688 28.5324C24.7489 28.6523 24.7917 28.7933 24.7917 28.9375C24.7917 29.1309 24.7148 29.3163 24.5781 29.4531C24.4414 29.5898 24.2559 29.6666 24.0625 29.6666Z" fill="white"/>
</g>
<defs>
<clipPath id="clip0_246_6971">
<rect width="35" height="35" fill="white" transform="translate(0 0.5)"/>
</clipPath>
</defs>
</svg>
