<svg width="216" height="155" viewBox="0 0 216 155" fill="none" xmlns="http://www.w3.org/2000/svg">
<g clip-path="url(#clip0_49_764)">
<path d="M16.7244 3.6719C16.7244 5.70293 15.163 7.34379 13.2416 7.34379C11.3202 7.34379 9.75879 5.69759 9.75879 3.6719C9.75879 1.64621 11.3152 0 13.2365 0C15.1579 0 16.7244 1.64621 16.7244 3.6719Z" fill="#F4CACA"/>
<path d="M34.8377 3.6719C34.8377 5.70293 33.2763 7.34379 31.3549 7.34379C29.4284 7.34379 27.8721 5.69759 27.8721 3.6719C27.8721 1.64621 29.4284 0 31.3549 0C33.2763 0 34.8377 1.64621 34.8377 3.6719Z" fill="#F4CACA"/>
<path d="M52.9568 3.6719C52.9568 5.70293 51.3954 7.34379 49.474 7.34379C47.5476 7.34379 45.9912 5.69759 45.9912 3.6719C45.9912 1.64621 47.5476 0 49.4689 0C51.3954 0 52.9568 1.64621 52.9568 3.6719Z" fill="#F4CACA"/>
<path d="M71.0701 3.6719C71.0701 5.70293 69.5087 7.34379 67.5873 7.34379C65.6659 7.34379 64.1045 5.69759 64.1045 3.6719C64.1045 1.64621 65.6609 0 67.5873 0C69.5137 0 71.0701 1.64621 71.0701 3.6719Z" fill="#F4CACA"/>
<path d="M89.1844 3.6719C89.1844 5.70293 87.6229 7.34379 85.7016 7.34379C83.7751 7.34379 82.2188 5.69759 82.2188 3.6719C82.2188 1.64621 83.7802 0 85.7016 0C87.628 0 89.1844 1.64621 89.1844 3.6719Z" fill="#F4CACA"/>
<path d="M107.303 3.6719C107.303 5.70293 105.741 7.34379 103.82 7.34379C101.893 7.34379 100.337 5.69759 100.337 3.6719C100.337 1.64621 101.893 0 103.82 0C105.741 0 107.303 1.64621 107.303 3.6719Z" fill="#F4CACA"/>
<path d="M125.417 3.6719C125.417 5.70293 123.855 7.34379 121.934 7.34379C120.008 7.34379 118.451 5.69759 118.451 3.6719C118.451 1.64621 120.013 0 121.934 0C123.86 0 125.417 1.64621 125.417 3.6719Z" fill="#F4CACA"/>
<path d="M143.535 3.6719C143.535 5.70293 141.974 7.34379 140.052 7.34379C138.126 7.34379 136.569 5.69759 136.569 3.6719C136.569 1.64621 138.126 0 140.052 0C141.974 0 143.535 1.64621 143.535 3.6719Z" fill="#F4CACA"/>
<path d="M161.649 3.6719C161.649 5.70293 160.088 7.34379 158.166 7.34379C156.245 7.34379 154.684 5.69759 154.684 3.6719C154.684 1.64621 156.245 0 158.166 0C160.093 0 161.649 1.64621 161.649 3.6719Z" fill="#F4CACA"/>
<path d="M179.767 3.6719C179.767 5.70293 178.206 7.34379 176.285 7.34379C174.363 7.34379 172.802 5.69759 172.802 3.6719C172.802 1.64621 174.358 0 176.285 0C178.211 0 179.767 1.64621 179.767 3.6719Z" fill="#F4CACA"/>
<path d="M197.881 3.6719C197.881 5.70293 196.319 7.34379 194.398 7.34379C192.476 7.34379 190.915 5.69759 190.915 3.6719C190.915 1.64621 192.471 0 194.398 0C196.319 0 197.881 1.64621 197.881 3.6719Z" fill="#F4CACA"/>
<path d="M216 3.6719C216 5.70293 214.438 7.34379 212.517 7.34379C210.596 7.34379 209.034 5.69759 209.034 3.6719C209.034 1.64621 210.591 0 212.512 0C214.438 0 216 1.64621 216 3.6719Z" fill="#F4CACA"/>
<path d="M6.96562 14.693C6.96562 16.724 5.40418 18.3649 3.48281 18.3649C1.56143 18.3649 0 16.7186 0 14.693C0 12.6673 1.56143 11.0211 3.48281 11.0211C5.40418 11.0211 6.96562 12.6619 6.96562 14.693Z" fill="#F4CACA"/>
<path d="M25.0848 14.693C25.0848 16.724 23.5233 18.3649 21.6019 18.3649C19.6806 18.3649 18.1191 16.7186 18.1191 14.693C18.1191 12.6673 19.6806 11.0211 21.6019 11.0211C23.5233 11.0211 25.0848 12.6619 25.0848 14.693Z" fill="#F4CACA"/>
<path d="M43.198 14.693C43.198 16.724 41.6366 18.3649 39.7152 18.3649C37.7939 18.3649 36.2324 16.7186 36.2324 14.693C36.2324 12.6673 37.7939 11.0211 39.7152 11.0211C41.6366 11.0211 43.198 12.6619 43.198 14.693Z" fill="#F4CACA"/>
<path d="M61.3162 14.693C61.3162 16.724 59.7548 18.3649 57.8334 18.3649C55.907 18.3649 54.3506 16.7186 54.3506 14.693C54.3506 12.6673 55.912 11.0211 57.8334 11.0211C59.7548 11.0211 61.3162 12.6619 61.3162 14.693Z" fill="#F4CACA"/>
<path d="M79.4305 14.693C79.4305 16.724 77.869 18.3649 75.9476 18.3649C74.0212 18.3649 72.4648 16.7186 72.4648 14.693C72.4648 12.6673 74.0263 11.0211 75.9476 11.0211C77.8741 11.0211 79.4305 12.6619 79.4305 14.693Z" fill="#F4CACA"/>
<path d="M97.5486 14.693C97.5486 16.724 95.9872 18.3649 94.0658 18.3649C92.1394 18.3649 90.583 16.7186 90.583 14.693C90.583 12.6673 92.1444 11.0211 94.0658 11.0211C95.9872 11.0211 97.5486 12.6619 97.5486 14.693Z" fill="#F4CACA"/>
<path d="M115.663 14.693C115.663 16.724 114.101 18.3649 112.18 18.3649C110.259 18.3649 108.697 16.7186 108.697 14.693C108.697 12.6673 110.259 11.0211 112.18 11.0211C114.101 11.0211 115.663 12.6619 115.663 14.693Z" fill="#F4CACA"/>
<path d="M133.781 14.693C133.781 16.724 132.22 18.3649 130.298 18.3649C128.377 18.3649 126.815 16.7186 126.815 14.693C126.815 12.6673 128.377 11.0211 130.298 11.0211C132.22 11.0211 133.781 12.6619 133.781 14.693Z" fill="#F4CACA"/>
<path d="M151.895 14.693C151.895 16.724 150.334 18.3649 148.412 18.3649C146.486 18.3649 144.93 16.7186 144.93 14.693C144.93 12.6673 146.491 11.0211 148.412 11.0211C150.334 11.0211 151.895 12.6619 151.895 14.693Z" fill="#F4CACA"/>
<path d="M170.013 14.693C170.013 16.724 168.452 18.3649 166.531 18.3649C164.609 18.3649 163.048 16.7186 163.048 14.693C163.048 12.6673 164.609 11.0211 166.531 11.0211C168.452 11.0211 170.013 12.6619 170.013 14.693Z" fill="#F4CACA"/>
<path d="M188.128 14.693C188.128 16.724 186.566 18.3649 184.645 18.3649C182.718 18.3649 181.162 16.7186 181.162 14.693C181.162 12.6673 182.724 11.0211 184.645 11.0211C186.566 11.0211 188.128 12.6619 188.128 14.693Z" fill="#F4CACA"/>
<path d="M206.241 14.693C206.241 16.724 204.68 18.3649 202.758 18.3649C200.837 18.3649 199.275 16.7186 199.275 14.693C199.275 12.6673 200.837 11.0211 202.758 11.0211C204.68 11.0211 206.241 12.6619 206.241 14.693Z" fill="#F4CACA"/>
<path d="M13.2367 30.1181C15.1602 30.1181 16.7195 28.4741 16.7195 26.4462C16.7195 24.4183 15.1602 22.7743 13.2367 22.7743C11.3132 22.7743 9.75391 24.4183 9.75391 26.4462C9.75391 28.4741 11.3132 30.1181 13.2367 30.1181Z" fill="#F4CACA"/>
<path d="M34.8387 26.4462C34.8387 28.4772 33.2772 30.1181 31.3559 30.1181C29.4294 30.1181 27.873 28.4719 27.873 26.4462C27.873 24.4205 29.4345 22.7743 31.3559 22.7743C33.2772 22.7743 34.8387 24.4152 34.8387 26.4462Z" fill="#F4CACA"/>
<path d="M49.4691 30.1181C51.3926 30.1181 52.9519 28.4741 52.9519 26.4462C52.9519 24.4183 51.3926 22.7743 49.4691 22.7743C47.5456 22.7743 45.9863 24.4183 45.9863 26.4462C45.9863 28.4741 47.5456 30.1181 49.4691 30.1181Z" fill="#F4CACA"/>
<path d="M67.5873 30.1181C69.5108 30.1181 71.0701 28.4741 71.0701 26.4462C71.0701 24.4183 69.5108 22.7743 67.5873 22.7743C65.6638 22.7743 64.1045 24.4183 64.1045 26.4462C64.1045 28.4741 65.6638 30.1181 67.5873 30.1181Z" fill="#F4CACA"/>
<path d="M85.7016 30.1181C87.6251 30.1181 89.1844 28.4741 89.1844 26.4462C89.1844 24.4183 87.6251 22.7743 85.7016 22.7743C83.7781 22.7743 82.2188 24.4183 82.2188 26.4462C82.2188 28.4741 83.7781 30.1181 85.7016 30.1181Z" fill="#F4CACA"/>
<path d="M103.82 30.1181C105.743 30.1181 107.303 28.4741 107.303 26.4462C107.303 24.4183 105.743 22.7743 103.82 22.7743C101.896 22.7743 100.337 24.4183 100.337 26.4462C100.337 28.4741 101.896 30.1181 103.82 30.1181Z" fill="#F4CACA"/>
<path d="M125.417 26.4462C125.417 28.4772 123.855 30.1181 121.934 30.1181C120.008 30.1181 118.451 28.4719 118.451 26.4462C118.451 24.4205 120.013 22.7743 121.934 22.7743C123.86 22.7743 125.417 24.4152 125.417 26.4462Z" fill="#F4CACA"/>
<path d="M143.535 26.4462C143.535 28.4772 141.974 30.1181 140.052 30.1181C138.126 30.1181 136.569 28.4719 136.569 26.4462C136.569 24.4205 138.131 22.7743 140.052 22.7743C141.974 22.7743 143.535 24.4152 143.535 26.4462Z" fill="#F4CACA"/>
<path d="M158.166 30.1181C160.09 30.1181 161.649 28.4741 161.649 26.4462C161.649 24.4183 160.09 22.7743 158.166 22.7743C156.243 22.7743 154.684 24.4183 154.684 26.4462C154.684 28.4741 156.243 30.1181 158.166 30.1181Z" fill="#F4CACA"/>
<path d="M176.285 30.1181C178.208 30.1181 179.767 28.4741 179.767 26.4462C179.767 24.4183 178.208 22.7743 176.285 22.7743C174.361 22.7743 172.802 24.4183 172.802 26.4462C172.802 28.4741 174.361 30.1181 176.285 30.1181Z" fill="#F4CACA"/>
<path d="M197.882 26.4462C197.882 28.4772 196.32 30.1181 194.399 30.1181C192.477 30.1181 190.916 28.4719 190.916 26.4462C190.916 24.4205 192.477 22.7743 194.399 22.7743C196.32 22.7743 197.882 24.4152 197.882 26.4462Z" fill="#F4CACA"/>
<path d="M216 26.4462C216 28.4772 214.438 30.1181 212.517 30.1181C210.596 30.1181 209.034 28.4719 209.034 26.4462C209.034 24.4205 210.596 22.7743 212.517 22.7743C214.438 22.7743 216 24.4152 216 26.4462Z" fill="#F4CACA"/>
<path d="M6.96562 37.4619C6.96562 39.4929 5.40418 41.1338 3.48281 41.1338C1.56143 41.1338 0 39.4929 0 37.4619C0 35.4308 1.56143 33.79 3.48281 33.79C5.40418 33.79 6.96562 35.4362 6.96562 37.4619Z" fill="#F4CACA"/>
<path d="M25.0848 37.4619C25.0848 39.4929 23.5233 41.1338 21.6019 41.1338C19.6806 41.1338 18.1191 39.4876 18.1191 37.4619C18.1191 35.4308 19.6806 33.79 21.6019 33.79C23.5233 33.79 25.0848 35.4362 25.0848 37.4619Z" fill="#F4CACA"/>
<path d="M43.198 37.4619C43.198 39.4929 41.6366 41.1338 39.7152 41.1338C37.7939 41.1338 36.2324 39.4876 36.2324 37.4619C36.2324 35.4308 37.7939 33.79 39.7152 33.79C41.6366 33.79 43.198 35.4362 43.198 37.4619Z" fill="#F4CACA"/>
<path d="M61.3162 37.4619C61.3162 39.4929 59.7548 41.1338 57.8334 41.1338C55.907 41.1338 54.3506 39.4876 54.3506 37.4619C54.3506 35.4308 55.912 33.79 57.8334 33.79C59.7548 33.79 61.3162 35.4362 61.3162 37.4619Z" fill="#F4CACA"/>
<path d="M79.4305 37.4619C79.4305 39.4929 77.869 41.1338 75.9476 41.1338C74.0212 41.1338 72.4648 39.4876 72.4648 37.4619C72.4648 35.4308 74.0263 33.79 75.9476 33.79C77.8741 33.79 79.4305 35.4362 79.4305 37.4619Z" fill="#F4CACA"/>
<path d="M97.5486 37.4619C97.5486 39.4929 95.9872 41.1338 94.0658 41.1338C92.1394 41.1338 90.583 39.4876 90.583 37.4619C90.583 35.4308 92.1444 33.79 94.0658 33.79C95.9872 33.79 97.5486 35.4362 97.5486 37.4619Z" fill="#F4CACA"/>
<path d="M115.663 37.4619C115.663 39.4929 114.101 41.1338 112.18 41.1338C110.259 41.1338 108.697 39.4876 108.697 37.4619C108.697 35.4308 110.259 33.79 112.18 33.79C114.101 33.79 115.663 35.4362 115.663 37.4619Z" fill="#F4CACA"/>
<path d="M133.781 37.4619C133.781 39.4929 132.22 41.1338 130.298 41.1338C128.377 41.1338 126.815 39.4876 126.815 37.4619C126.815 35.4308 128.377 33.79 130.298 33.79C132.22 33.79 133.781 35.4362 133.781 37.4619Z" fill="#F4CACA"/>
<path d="M151.895 37.4619C151.895 39.4929 150.334 41.1338 148.412 41.1338C146.486 41.1338 144.93 39.4876 144.93 37.4619C144.93 35.4308 146.491 33.79 148.412 33.79C150.334 33.79 151.895 35.4362 151.895 37.4619Z" fill="#F4CACA"/>
<path d="M170.013 37.4619C170.013 39.4929 168.452 41.1338 166.531 41.1338C164.609 41.1338 163.048 39.4876 163.048 37.4619C163.048 35.4308 164.609 33.79 166.531 33.79C168.452 33.79 170.013 35.4362 170.013 37.4619Z" fill="#F4CACA"/>
<path d="M188.128 37.4619C188.128 39.4929 186.566 41.1338 184.645 41.1338C182.718 41.1338 181.162 39.4876 181.162 37.4619C181.162 35.4308 182.724 33.79 184.645 33.79C186.566 33.79 188.128 35.4362 188.128 37.4619Z" fill="#F4CACA"/>
<path d="M206.241 37.4619C206.241 39.4929 204.68 41.1338 202.758 41.1338C200.837 41.1338 199.275 39.4876 199.275 37.4619C199.275 35.4308 200.837 33.79 202.758 33.79C204.68 33.79 206.241 35.4362 206.241 37.4619Z" fill="#F4CACA"/>
<path d="M16.7244 49.2205C16.7244 51.2515 15.163 52.8924 13.2416 52.8924C11.3202 52.8924 9.75879 51.2462 9.75879 49.2205C9.75879 47.1894 11.3202 45.5486 13.2416 45.5486C15.163 45.5486 16.7244 47.1894 16.7244 49.2205Z" fill="#F4CACA"/>
<path d="M34.8377 49.2205C34.8377 51.2515 33.2763 52.8924 31.3549 52.8924C29.4284 52.8924 27.8721 51.2462 27.8721 49.2205C27.8721 47.1895 29.4335 45.5486 31.3549 45.5486C33.2763 45.5433 34.8377 47.1895 34.8377 49.2205Z" fill="#F4CACA"/>
<path d="M52.9568 49.2205C52.9568 51.2515 51.3954 52.8924 49.474 52.8924C47.5476 52.8924 45.9912 51.2462 45.9912 49.2205C45.9912 47.1895 47.5526 45.5486 49.474 45.5486C51.3954 45.5433 52.9568 47.1895 52.9568 49.2205Z" fill="#F4CACA"/>
<path d="M71.0701 49.2205C71.0701 51.2515 69.5087 52.8924 67.5873 52.8924C65.6659 52.8924 64.1045 51.2462 64.1045 49.2205C64.1045 47.1894 65.6659 45.5486 67.5873 45.5486C69.5087 45.5486 71.0701 47.1894 71.0701 49.2205Z" fill="#F4CACA"/>
<path d="M89.1844 49.2205C89.1844 51.2515 87.6229 52.8924 85.7016 52.8924C83.7751 52.8924 82.2188 51.2462 82.2188 49.2205C82.2188 47.1895 83.7802 45.5486 85.7016 45.5486C87.628 45.5433 89.1844 47.1895 89.1844 49.2205Z" fill="#F4CACA"/>
<path d="M107.303 49.2205C107.303 51.2515 105.741 52.8924 103.82 52.8924C101.893 52.8924 100.337 51.2462 100.337 49.2205C100.337 47.1895 101.898 45.5486 103.82 45.5486C105.741 45.5433 107.303 47.1895 107.303 49.2205Z" fill="#F4CACA"/>
<path d="M125.417 49.2205C125.417 51.2515 123.855 52.8924 121.934 52.8924C120.008 52.8924 118.451 51.2462 118.451 49.2205C118.451 47.1895 120.013 45.5486 121.934 45.5486C123.86 45.5433 125.417 47.1895 125.417 49.2205Z" fill="#F4CACA"/>
<path d="M143.535 49.2205C143.535 51.2515 141.974 52.8924 140.052 52.8924C138.126 52.8924 136.569 51.2462 136.569 49.2205C136.569 47.1895 138.131 45.5486 140.052 45.5486C141.974 45.5433 143.535 47.1895 143.535 49.2205Z" fill="#F4CACA"/>
<path d="M161.649 49.2205C161.649 51.2515 160.088 52.8924 158.166 52.8924C156.245 52.8924 154.684 51.2462 154.684 49.2205C154.684 47.1895 156.245 45.5486 158.166 45.5486C160.093 45.5433 161.649 47.1895 161.649 49.2205Z" fill="#F4CACA"/>
<path d="M179.767 49.2205C179.767 51.2515 178.206 52.8924 176.285 52.8924C174.363 52.8924 172.802 51.2462 172.802 49.2205C172.802 47.1894 174.363 45.5486 176.285 45.5486C178.206 45.5486 179.767 47.1894 179.767 49.2205Z" fill="#F4CACA"/>
<path d="M197.881 49.2205C197.881 51.2515 196.319 52.8924 194.398 52.8924C192.476 52.8924 190.915 51.2462 190.915 49.2205C190.915 47.1895 192.476 45.5486 194.398 45.5486C196.319 45.5433 197.881 47.1895 197.881 49.2205Z" fill="#F4CACA"/>
<path d="M216 49.2205C216 51.2515 214.438 52.8924 212.517 52.8924C210.596 52.8924 209.034 51.2462 209.034 49.2205C209.034 47.1895 210.596 45.5486 212.517 45.5486C214.438 45.5433 216 47.1895 216 49.2205Z" fill="#F4CACA"/>
<path d="M6.96562 60.2362C6.96562 62.2619 5.40418 63.9081 3.48281 63.9081C1.56143 63.9081 0 62.2673 0 60.2362C0 58.2052 1.56143 56.5643 3.48281 56.5643C5.40418 56.5643 6.96562 58.2105 6.96562 60.2362Z" fill="#F4CACA"/>
<path d="M25.0848 60.2362C25.0848 62.2619 23.5233 63.9081 21.6019 63.9081C19.6806 63.9081 18.1191 62.2619 18.1191 60.2362C18.1191 58.2052 19.6806 56.5643 21.6019 56.5643C23.5233 56.5643 25.0848 58.2105 25.0848 60.2362Z" fill="#F4CACA"/>
<path d="M43.198 60.2362C43.198 62.2619 41.6366 63.9081 39.7152 63.9081C37.7939 63.9081 36.2324 62.2619 36.2324 60.2362C36.2324 58.2052 37.7939 56.5643 39.7152 56.5643C41.6366 56.5643 43.198 58.2105 43.198 60.2362Z" fill="#F4CACA"/>
<path d="M61.3162 60.2362C61.3162 62.2619 59.7548 63.9081 57.8334 63.9081C55.907 63.9081 54.3506 62.2619 54.3506 60.2362C54.3506 58.2052 55.912 56.5643 57.8334 56.5643C59.7548 56.5643 61.3162 58.2105 61.3162 60.2362Z" fill="#F4CACA"/>
<path d="M79.4305 60.2362C79.4305 62.2619 77.869 63.9081 75.9476 63.9081C74.0212 63.9081 72.4648 62.2619 72.4648 60.2362C72.4648 58.2052 74.0263 56.5643 75.9476 56.5643C77.8741 56.5643 79.4305 58.2105 79.4305 60.2362Z" fill="#F4CACA"/>
<path d="M97.5486 60.2362C97.5486 62.2619 95.9872 63.9081 94.0658 63.9081C92.1394 63.9081 90.583 62.2619 90.583 60.2362C90.583 58.2052 92.1444 56.5643 94.0658 56.5643C95.9872 56.5643 97.5486 58.2105 97.5486 60.2362Z" fill="#F4CACA"/>
<path d="M115.663 60.2362C115.663 62.2619 114.101 63.9081 112.18 63.9081C110.259 63.9081 108.697 62.2619 108.697 60.2362C108.697 58.2052 110.259 56.5643 112.18 56.5643C114.101 56.5643 115.663 58.2105 115.663 60.2362Z" fill="#F4CACA"/>
<path d="M133.781 60.2362C133.781 62.2619 132.22 63.9081 130.298 63.9081C128.377 63.9081 126.815 62.2619 126.815 60.2362C126.815 58.2052 128.377 56.5643 130.298 56.5643C132.22 56.5643 133.781 58.2105 133.781 60.2362Z" fill="#F4CACA"/>
<path d="M151.895 60.2362C151.895 62.2619 150.334 63.9081 148.412 63.9081C146.486 63.9081 144.93 62.2619 144.93 60.2362C144.93 58.2052 146.491 56.5643 148.412 56.5643C150.334 56.5643 151.895 58.2105 151.895 60.2362Z" fill="#F4CACA"/>
<path d="M170.013 60.2362C170.013 62.2619 168.452 63.9081 166.531 63.9081C164.609 63.9081 163.048 62.2619 163.048 60.2362C163.048 58.2052 164.609 56.5643 166.531 56.5643C168.452 56.5643 170.013 58.2105 170.013 60.2362Z" fill="#F4CACA"/>
<path d="M188.128 60.2362C188.128 62.2619 186.566 63.9081 184.645 63.9081C182.718 63.9081 181.162 62.2619 181.162 60.2362C181.162 58.2052 182.724 56.5643 184.645 56.5643C186.566 56.5643 188.128 58.2105 188.128 60.2362Z" fill="#F4CACA"/>
<path d="M206.241 60.2362C206.241 62.2619 204.68 63.9081 202.758 63.9081C200.837 63.9081 199.275 62.2619 199.275 60.2362C199.275 58.2052 200.837 56.5643 202.758 56.5643C204.68 56.5643 206.241 58.2105 206.241 60.2362Z" fill="#F4CACA"/>
<path d="M13.2367 75.6614C15.1602 75.6614 16.7195 74.0174 16.7195 71.9895C16.7195 69.9615 15.1602 68.3176 13.2367 68.3176C11.3132 68.3176 9.75391 69.9615 9.75391 71.9895C9.75391 74.0174 11.3132 75.6614 13.2367 75.6614Z" fill="#F4CACA"/>
<path d="M34.8387 71.9895C34.8387 74.0205 33.2772 75.6614 31.3559 75.6614C29.4294 75.6614 27.873 74.0152 27.873 71.9895C27.873 69.9638 29.4345 68.3176 31.3559 68.3176C33.2772 68.3176 34.8387 69.9638 34.8387 71.9895Z" fill="#F4CACA"/>
<path d="M49.4691 75.6614C51.3926 75.6614 52.9519 74.0174 52.9519 71.9895C52.9519 69.9615 51.3926 68.3176 49.4691 68.3176C47.5456 68.3176 45.9863 69.9615 45.9863 71.9895C45.9863 74.0174 47.5456 75.6614 49.4691 75.6614Z" fill="#F4CACA"/>
<path d="M67.5873 75.6614C69.5108 75.6614 71.0701 74.0174 71.0701 71.9895C71.0701 69.9615 69.5108 68.3176 67.5873 68.3176C65.6638 68.3176 64.1045 69.9615 64.1045 71.9895C64.1045 74.0174 65.6638 75.6614 67.5873 75.6614Z" fill="#F4CACA"/>
<path d="M85.7016 75.6614C87.6251 75.6614 89.1844 74.0174 89.1844 71.9895C89.1844 69.9615 87.6251 68.3176 85.7016 68.3176C83.7781 68.3176 82.2188 69.9615 82.2188 71.9895C82.2188 74.0174 83.7781 75.6614 85.7016 75.6614Z" fill="#F4CACA"/>
<path d="M103.82 75.6614C105.743 75.6614 107.303 74.0174 107.303 71.9895C107.303 69.9615 105.743 68.3176 103.82 68.3176C101.896 68.3176 100.337 69.9615 100.337 71.9895C100.337 74.0174 101.896 75.6614 103.82 75.6614Z" fill="#F4CACA"/>
<path d="M125.417 71.9895C125.417 74.0205 123.855 75.6614 121.934 75.6614C120.008 75.6614 118.451 74.0152 118.451 71.9895C118.451 69.9638 120.013 68.3176 121.934 68.3176C123.86 68.3176 125.417 69.9638 125.417 71.9895Z" fill="#F4CACA"/>
<path d="M143.535 71.9895C143.535 74.0205 141.974 75.6614 140.052 75.6614C138.126 75.6614 136.569 74.0152 136.569 71.9895C136.569 69.9638 138.131 68.3176 140.052 68.3176C141.974 68.3176 143.535 69.9638 143.535 71.9895Z" fill="#F4CACA"/>
<path d="M158.166 75.6614C160.09 75.6614 161.649 74.0174 161.649 71.9895C161.649 69.9615 160.09 68.3176 158.166 68.3176C156.243 68.3176 154.684 69.9615 154.684 71.9895C154.684 74.0174 156.243 75.6614 158.166 75.6614Z" fill="#F4CACA"/>
<path d="M176.285 75.6614C178.208 75.6614 179.767 74.0174 179.767 71.9895C179.767 69.9615 178.208 68.3176 176.285 68.3176C174.361 68.3176 172.802 69.9615 172.802 71.9895C172.802 74.0174 174.361 75.6614 176.285 75.6614Z" fill="#F4CACA"/>
<path d="M197.882 71.9895C197.882 74.0205 196.32 75.6614 194.399 75.6614C192.477 75.6614 190.916 74.0152 190.916 71.9895C190.916 69.9638 192.477 68.3176 194.399 68.3176C196.32 68.3176 197.882 69.9638 197.882 71.9895Z" fill="#F4CACA"/>
<path d="M216 71.9895C216 74.0205 214.438 75.6614 212.517 75.6614C210.596 75.6614 209.034 74.0152 209.034 71.9895C209.034 69.9638 210.596 68.3176 212.517 68.3176C214.438 68.3176 216 69.9638 216 71.9895Z" fill="#F4CACA"/>
<path d="M3.48281 86.6824C5.40631 86.6824 6.96562 85.0384 6.96562 83.0105C6.96562 80.9826 5.40631 79.3386 3.48281 79.3386C1.55931 79.3386 0 80.9826 0 83.0105C0 85.0384 1.55931 86.6824 3.48281 86.6824Z" fill="#F4CACA"/>
<path d="M21.6019 86.6824C23.5254 86.6824 25.0848 85.0384 25.0848 83.0105C25.0848 80.9826 23.5254 79.3386 21.6019 79.3386C19.6784 79.3386 18.1191 80.9826 18.1191 83.0105C18.1191 85.0384 19.6784 86.6824 21.6019 86.6824Z" fill="#F4CACA"/>
<path d="M39.7152 86.6824C41.6387 86.6824 43.198 85.0384 43.198 83.0105C43.198 80.9826 41.6387 79.3386 39.7152 79.3386C37.7917 79.3386 36.2324 80.9826 36.2324 83.0105C36.2324 85.0384 37.7917 86.6824 39.7152 86.6824Z" fill="#F4CACA"/>
<path d="M57.8334 86.6824C59.7569 86.6824 61.3162 85.0384 61.3162 83.0105C61.3162 80.9826 59.7569 79.3386 57.8334 79.3386C55.9099 79.3386 54.3506 80.9826 54.3506 83.0105C54.3506 85.0384 55.9099 86.6824 57.8334 86.6824Z" fill="#F4CACA"/>
<path d="M75.9476 86.6824C77.8712 86.6824 79.4305 85.0384 79.4305 83.0105C79.4305 80.9826 77.8712 79.3386 75.9476 79.3386C74.0241 79.3386 72.4648 80.9826 72.4648 83.0105C72.4648 85.0384 74.0241 86.6824 75.9476 86.6824Z" fill="#F4CACA"/>
<path d="M94.0609 86.6824C95.9844 86.6824 97.5437 85.0384 97.5437 83.0105C97.5437 80.9826 95.9844 79.3386 94.0609 79.3386C92.1374 79.3386 90.5781 80.9826 90.5781 83.0105C90.5781 85.0384 92.1374 86.6824 94.0609 86.6824Z" fill="#F4CACA"/>
<path d="M112.18 86.6824C114.104 86.6824 115.663 85.0384 115.663 83.0105C115.663 80.9826 114.104 79.3386 112.18 79.3386C110.257 79.3386 108.697 80.9826 108.697 83.0105C108.697 85.0384 110.257 86.6824 112.18 86.6824Z" fill="#F4CACA"/>
<path d="M130.293 86.6824C132.217 86.6824 133.776 85.0384 133.776 83.0105C133.776 80.9826 132.217 79.3386 130.293 79.3386C128.37 79.3386 126.811 80.9826 126.811 83.0105C126.811 85.0384 128.37 86.6824 130.293 86.6824Z" fill="#F4CACA"/>
<path d="M151.895 83.0105C151.895 85.0362 150.334 86.6824 148.412 86.6824C146.486 86.6824 144.93 85.0362 144.93 83.0105C144.93 80.9848 146.491 79.3386 148.412 79.3386C150.334 79.3386 151.895 80.9795 151.895 83.0105Z" fill="#F4CACA"/>
<path d="M170.013 83.0105C170.013 85.0362 168.452 86.6824 166.531 86.6824C164.609 86.6824 163.048 85.0362 163.048 83.0105C163.048 80.9848 164.609 79.3386 166.531 79.3386C168.452 79.3386 170.013 80.9795 170.013 83.0105Z" fill="#F4CACA"/>
<path d="M188.128 83.0105C188.128 85.0362 186.566 86.6824 184.645 86.6824C182.718 86.6824 181.162 85.0362 181.162 83.0105C181.162 80.9848 182.724 79.3386 184.645 79.3386C186.566 79.3386 188.128 80.9795 188.128 83.0105Z" fill="#F4CACA"/>
<path d="M202.758 86.6824C204.682 86.6824 206.241 85.0384 206.241 83.0105C206.241 80.9826 204.682 79.3386 202.758 79.3386C200.835 79.3386 199.275 80.9826 199.275 83.0105C199.275 85.0384 200.835 86.6824 202.758 86.6824Z" fill="#F4CACA"/>
<path d="M16.7244 94.7638C16.7244 96.7949 15.163 98.4357 13.2416 98.4357C11.3202 98.4357 9.75879 96.7895 9.75879 94.7638C9.75879 92.7381 11.3202 91.0919 13.2416 91.0919C15.163 91.0919 16.7244 92.7328 16.7244 94.7638Z" fill="#F4CACA"/>
<path d="M34.8377 94.7638C34.8377 96.7949 33.2763 98.4357 31.3549 98.4357C29.4284 98.4357 27.8721 96.7895 27.8721 94.7638C27.8721 92.7381 29.4335 91.0919 31.3549 91.0919C33.2763 91.0919 34.8377 92.7328 34.8377 94.7638Z" fill="#F4CACA"/>
<path d="M52.9568 94.7638C52.9568 96.7949 51.3954 98.4357 49.474 98.4357C47.5476 98.4357 45.9912 96.7895 45.9912 94.7638C45.9912 92.7381 47.5526 91.0919 49.474 91.0919C51.3954 91.0919 52.9568 92.7328 52.9568 94.7638Z" fill="#F4CACA"/>
<path d="M71.0701 94.7638C71.0701 96.7949 69.5087 98.4357 67.5873 98.4357C65.6659 98.4357 64.1045 96.7895 64.1045 94.7638C64.1045 92.7381 65.6659 91.0919 67.5873 91.0919C69.5087 91.0919 71.0701 92.7328 71.0701 94.7638Z" fill="#F4CACA"/>
<path d="M89.1844 94.7638C89.1844 96.7949 87.6229 98.4357 85.7016 98.4357C83.7751 98.4357 82.2188 96.7895 82.2188 94.7638C82.2188 92.7381 83.7802 91.0919 85.7016 91.0919C87.628 91.0919 89.1844 92.7328 89.1844 94.7638Z" fill="#F4CACA"/>
<path d="M107.303 94.7638C107.303 96.7949 105.741 98.4357 103.82 98.4357C101.893 98.4357 100.337 96.7895 100.337 94.7638C100.337 92.7381 101.898 91.0919 103.82 91.0919C105.741 91.0919 107.303 92.7328 107.303 94.7638Z" fill="#F4CACA"/>
<path d="M125.417 94.7638C125.417 96.7949 123.855 98.4357 121.934 98.4357C120.008 98.4357 118.451 96.7895 118.451 94.7638C118.451 92.7381 120.013 91.0919 121.934 91.0919C123.86 91.0919 125.417 92.7328 125.417 94.7638Z" fill="#F4CACA"/>
<path d="M143.535 94.7638C143.535 96.7949 141.974 98.4357 140.052 98.4357C138.126 98.4357 136.569 96.7895 136.569 94.7638C136.569 92.7381 138.131 91.0919 140.052 91.0919C141.974 91.0919 143.535 92.7328 143.535 94.7638Z" fill="#F4CACA"/>
<path d="M161.649 94.7638C161.649 96.7949 160.088 98.4357 158.166 98.4357C156.245 98.4357 154.684 96.7895 154.684 94.7638C154.684 92.7381 156.245 91.0919 158.166 91.0919C160.093 91.0919 161.649 92.7328 161.649 94.7638Z" fill="#F4CACA"/>
<path d="M179.767 94.7638C179.767 96.7949 178.206 98.4357 176.285 98.4357C174.363 98.4357 172.802 96.7895 172.802 94.7638C172.802 92.7381 174.363 91.0919 176.285 91.0919C178.206 91.0919 179.767 92.7328 179.767 94.7638Z" fill="#F4CACA"/>
<path d="M197.881 94.7638C197.881 96.7949 196.319 98.4357 194.398 98.4357C192.476 98.4357 190.915 96.7895 190.915 94.7638C190.915 92.7381 192.476 91.0919 194.398 91.0919C196.319 91.0919 197.881 92.7328 197.881 94.7638Z" fill="#F4CACA"/>
<path d="M216 94.7638C216 96.7949 214.438 98.4357 212.517 98.4357C210.596 98.4357 209.034 96.7895 209.034 94.7638C209.034 92.7381 210.596 91.0919 212.517 91.0919C214.438 91.0919 216 92.7328 216 94.7638Z" fill="#F4CACA"/>
<path d="M6.96562 105.78C6.96562 107.811 5.40418 109.451 3.48281 109.451C1.56143 109.451 0 107.811 0 105.78C0 103.748 1.56143 102.108 3.48281 102.108C5.40418 102.108 6.96562 103.754 6.96562 105.78Z" fill="#F4CACA"/>
<path d="M25.0848 105.78C25.0848 107.811 23.5233 109.451 21.6019 109.451C19.6806 109.451 18.1191 107.805 18.1191 105.78C18.1191 103.748 19.6806 102.108 21.6019 102.108C23.5233 102.108 25.0848 103.754 25.0848 105.78Z" fill="#F4CACA"/>
<path d="M43.198 105.78C43.198 107.811 41.6366 109.451 39.7152 109.451C37.7939 109.451 36.2324 107.805 36.2324 105.78C36.2324 103.748 37.7939 102.108 39.7152 102.108C41.6366 102.108 43.198 103.754 43.198 105.78Z" fill="#F4CACA"/>
<path d="M61.3162 105.78C61.3162 107.811 59.7548 109.451 57.8334 109.451C55.907 109.451 54.3506 107.805 54.3506 105.78C54.3506 103.748 55.912 102.108 57.8334 102.108C59.7548 102.108 61.3162 103.754 61.3162 105.78Z" fill="#F4CACA"/>
<path d="M79.4305 105.78C79.4305 107.811 77.869 109.451 75.9476 109.451C74.0212 109.451 72.4648 107.805 72.4648 105.78C72.4648 103.748 74.0263 102.108 75.9476 102.108C77.8741 102.108 79.4305 103.754 79.4305 105.78Z" fill="#F4CACA"/>
<path d="M97.5486 105.78C97.5486 107.811 95.9872 109.451 94.0658 109.451C92.1394 109.451 90.583 107.805 90.583 105.78C90.583 103.748 92.1444 102.108 94.0658 102.108C95.9872 102.108 97.5486 103.754 97.5486 105.78Z" fill="#F4CACA"/>
<path d="M115.663 105.78C115.663 107.811 114.101 109.451 112.18 109.451C110.259 109.451 108.697 107.805 108.697 105.78C108.697 103.748 110.259 102.108 112.18 102.108C114.101 102.108 115.663 103.754 115.663 105.78Z" fill="#F4CACA"/>
<path d="M133.781 105.78C133.781 107.811 132.22 109.451 130.298 109.451C128.377 109.451 126.815 107.805 126.815 105.78C126.815 103.748 128.377 102.108 130.298 102.108C132.22 102.108 133.781 103.754 133.781 105.78Z" fill="#F4CACA"/>
<path d="M151.895 105.78C151.895 107.811 150.334 109.451 148.412 109.451C146.486 109.451 144.93 107.805 144.93 105.78C144.93 103.748 146.491 102.108 148.412 102.108C150.334 102.108 151.895 103.754 151.895 105.78Z" fill="#F4CACA"/>
<path d="M170.013 105.78C170.013 107.811 168.452 109.451 166.531 109.451C164.609 109.451 163.048 107.805 163.048 105.78C163.048 103.748 164.609 102.108 166.531 102.108C168.452 102.108 170.013 103.754 170.013 105.78Z" fill="#F4CACA"/>
<path d="M188.128 105.78C188.128 107.811 186.566 109.451 184.645 109.451C182.718 109.451 181.162 107.805 181.162 105.78C181.162 103.748 182.724 102.108 184.645 102.108C186.566 102.108 188.128 103.754 188.128 105.78Z" fill="#F4CACA"/>
<path d="M206.241 105.78C206.241 107.811 204.68 109.451 202.758 109.451C200.837 109.451 199.275 107.805 199.275 105.78C199.275 103.748 200.837 102.108 202.758 102.108C204.68 102.108 206.241 103.754 206.241 105.78Z" fill="#F4CACA"/>
<path d="M16.7244 117.538C16.7244 119.564 15.163 121.21 13.2416 121.21C11.3202 121.21 9.75879 119.564 9.75879 117.538C9.75879 115.507 11.3202 113.866 13.2416 113.866C15.163 113.866 16.7244 115.507 16.7244 117.538Z" fill="#F4CACA"/>
<path d="M34.8377 117.538C34.8377 119.564 33.2763 121.21 31.3549 121.21C29.4284 121.21 27.8721 119.564 27.8721 117.538C27.8721 115.507 29.4335 113.866 31.3549 113.866C33.2763 113.861 34.8377 115.507 34.8377 117.538Z" fill="#F4CACA"/>
<path d="M52.9568 117.538C52.9568 119.564 51.3954 121.21 49.474 121.21C47.5476 121.21 45.9912 119.564 45.9912 117.538C45.9912 115.507 47.5526 113.866 49.474 113.866C51.3954 113.861 52.9568 115.507 52.9568 117.538Z" fill="#F4CACA"/>
<path d="M71.0701 117.538C71.0701 119.564 69.5087 121.21 67.5873 121.21C65.6659 121.21 64.1045 119.564 64.1045 117.538C64.1045 115.507 65.6659 113.866 67.5873 113.866C69.5087 113.866 71.0701 115.507 71.0701 117.538Z" fill="#F4CACA"/>
<path d="M89.1844 117.538C89.1844 119.564 87.6229 121.21 85.7016 121.21C83.7751 121.21 82.2188 119.564 82.2188 117.538C82.2188 115.507 83.7802 113.866 85.7016 113.866C87.628 113.861 89.1844 115.507 89.1844 117.538Z" fill="#F4CACA"/>
<path d="M107.303 117.538C107.303 119.564 105.741 121.21 103.82 121.21C101.893 121.21 100.337 119.564 100.337 117.538C100.337 115.507 101.898 113.866 103.82 113.866C105.741 113.861 107.303 115.507 107.303 117.538Z" fill="#F4CACA"/>
<path d="M125.417 117.538C125.417 119.564 123.855 121.21 121.934 121.21C120.008 121.21 118.451 119.564 118.451 117.538C118.451 115.507 120.013 113.866 121.934 113.866C123.86 113.861 125.417 115.507 125.417 117.538Z" fill="#F4CACA"/>
<path d="M143.535 117.538C143.535 119.564 141.974 121.21 140.052 121.21C138.126 121.21 136.569 119.564 136.569 117.538C136.569 115.507 138.131 113.866 140.052 113.866C141.974 113.861 143.535 115.507 143.535 117.538Z" fill="#F4CACA"/>
<path d="M161.649 117.538C161.649 119.564 160.088 121.21 158.166 121.21C156.245 121.21 154.684 119.564 154.684 117.538C154.684 115.507 156.245 113.866 158.166 113.866C160.093 113.861 161.649 115.507 161.649 117.538Z" fill="#F4CACA"/>
<path d="M179.767 117.538C179.767 119.564 178.206 121.21 176.285 121.21C174.363 121.21 172.802 119.564 172.802 117.538C172.802 115.507 174.363 113.866 176.285 113.866C178.206 113.866 179.767 115.507 179.767 117.538Z" fill="#F4CACA"/>
<path d="M197.881 117.538C197.881 119.564 196.319 121.21 194.398 121.21C192.476 121.21 190.915 119.564 190.915 117.538C190.915 115.507 192.476 113.866 194.398 113.866C196.319 113.861 197.881 115.507 197.881 117.538Z" fill="#F4CACA"/>
<path d="M216 117.538C216 119.564 214.438 121.21 212.517 121.21C210.596 121.21 209.034 119.564 209.034 117.538C209.034 115.507 210.596 113.866 212.517 113.866C214.438 113.861 216 115.507 216 117.538Z" fill="#F4CACA"/>
<path d="M6.96562 128.554C6.96562 130.585 5.40418 132.226 3.48281 132.226C1.56143 132.226 0 130.585 0 128.554C0 126.528 1.56143 124.882 3.48281 124.882C5.40418 124.882 6.96562 126.528 6.96562 128.554Z" fill="#F4CACA"/>
<path d="M25.0848 128.554C25.0848 130.585 23.5233 132.226 21.6019 132.226C19.6806 132.226 18.1191 130.579 18.1191 128.554C18.1191 126.528 19.6806 124.882 21.6019 124.882C23.5233 124.882 25.0848 126.528 25.0848 128.554Z" fill="#F4CACA"/>
<path d="M43.198 128.554C43.198 130.585 41.6366 132.226 39.7152 132.226C37.7939 132.226 36.2324 130.579 36.2324 128.554C36.2324 126.528 37.7939 124.882 39.7152 124.882C41.6366 124.882 43.198 126.528 43.198 128.554Z" fill="#F4CACA"/>
<path d="M61.3162 128.554C61.3162 130.585 59.7548 132.226 57.8334 132.226C55.907 132.226 54.3506 130.579 54.3506 128.554C54.3506 126.528 55.912 124.882 57.8334 124.882C59.7548 124.882 61.3162 126.528 61.3162 128.554Z" fill="#F4CACA"/>
<path d="M79.4305 128.554C79.4305 130.585 77.869 132.226 75.9476 132.226C74.0212 132.226 72.4648 130.579 72.4648 128.554C72.4648 126.528 74.0263 124.882 75.9476 124.882C77.8741 124.882 79.4305 126.528 79.4305 128.554Z" fill="#F4CACA"/>
<path d="M97.5486 128.554C97.5486 130.585 95.9872 132.226 94.0658 132.226C92.1394 132.226 90.583 130.579 90.583 128.554C90.583 126.528 92.1444 124.882 94.0658 124.882C95.9872 124.882 97.5486 126.528 97.5486 128.554Z" fill="#F4CACA"/>
<path d="M115.663 128.554C115.663 130.585 114.101 132.226 112.18 132.226C110.259 132.226 108.697 130.579 108.697 128.554C108.697 126.528 110.259 124.882 112.18 124.882C114.101 124.882 115.663 126.528 115.663 128.554Z" fill="#F4CACA"/>
<path d="M133.781 128.554C133.781 130.585 132.22 132.226 130.298 132.226C128.377 132.226 126.815 130.579 126.815 128.554C126.815 126.528 128.377 124.882 130.298 124.882C132.22 124.882 133.781 126.528 133.781 128.554Z" fill="#F4CACA"/>
<path d="M151.895 128.554C151.895 130.585 150.334 132.226 148.412 132.226C146.486 132.226 144.93 130.579 144.93 128.554C144.93 126.528 146.491 124.882 148.412 124.882C150.334 124.882 151.895 126.528 151.895 128.554Z" fill="#F4CACA"/>
<path d="M170.013 128.554C170.013 130.585 168.452 132.226 166.531 132.226C164.609 132.226 163.048 130.579 163.048 128.554C163.048 126.528 164.609 124.882 166.531 124.882C168.452 124.882 170.013 126.528 170.013 128.554Z" fill="#F4CACA"/>
<path d="M188.128 128.554C188.128 130.585 186.566 132.226 184.645 132.226C182.718 132.226 181.162 130.579 181.162 128.554C181.162 126.528 182.724 124.882 184.645 124.882C186.566 124.882 188.128 126.528 188.128 128.554Z" fill="#F4CACA"/>
<path d="M206.241 128.554C206.241 130.585 204.68 132.226 202.758 132.226C200.837 132.226 199.275 130.579 199.275 128.554C199.275 126.528 200.837 124.882 202.758 124.882C204.68 124.882 206.241 126.528 206.241 128.554Z" fill="#F4CACA"/>
<path d="M16.7244 140.307C16.7244 142.338 15.163 143.979 13.2416 143.979C11.3202 143.979 9.75879 142.333 9.75879 140.307C9.75879 138.281 11.3202 136.635 13.2416 136.635C15.163 136.635 16.7244 138.281 16.7244 140.307Z" fill="#F4CACA"/>
<path d="M34.8377 140.307C34.8377 142.338 33.2763 143.979 31.3549 143.979C29.4284 143.979 27.8721 142.333 27.8721 140.307C27.8721 138.281 29.4335 136.635 31.3549 136.635C33.2763 136.635 34.8377 138.281 34.8377 140.307Z" fill="#F4CACA"/>
<path d="M52.9568 140.307C52.9568 142.338 51.3954 143.979 49.474 143.979C47.5476 143.979 45.9912 142.333 45.9912 140.307C45.9912 138.281 47.5526 136.635 49.474 136.635C51.3954 136.635 52.9568 138.281 52.9568 140.307Z" fill="#F4CACA"/>
<path d="M71.0701 140.307C71.0701 142.338 69.5087 143.979 67.5873 143.979C65.6659 143.979 64.1045 142.333 64.1045 140.307C64.1045 138.281 65.6659 136.635 67.5873 136.635C69.5087 136.635 71.0701 138.281 71.0701 140.307Z" fill="#F4CACA"/>
<path d="M89.1844 140.307C89.1844 142.338 87.6229 143.979 85.7016 143.979C83.7751 143.979 82.2188 142.333 82.2188 140.307C82.2188 138.281 83.7802 136.635 85.7016 136.635C87.628 136.635 89.1844 138.281 89.1844 140.307Z" fill="#F4CACA"/>
<path d="M107.303 140.307C107.303 142.338 105.741 143.979 103.82 143.979C101.893 143.979 100.337 142.333 100.337 140.307C100.337 138.281 101.898 136.635 103.82 136.635C105.741 136.635 107.303 138.281 107.303 140.307Z" fill="#F4CACA"/>
<path d="M125.417 140.307C125.417 142.338 123.855 143.979 121.934 143.979C120.008 143.979 118.451 142.333 118.451 140.307C118.451 138.281 120.013 136.635 121.934 136.635C123.86 136.635 125.417 138.281 125.417 140.307Z" fill="#F4CACA"/>
<path d="M143.535 140.307C143.535 142.338 141.974 143.979 140.052 143.979C138.126 143.979 136.569 142.333 136.569 140.307C136.569 138.281 138.131 136.635 140.052 136.635C141.974 136.635 143.535 138.281 143.535 140.307Z" fill="#F4CACA"/>
<path d="M161.649 140.307C161.649 142.338 160.088 143.979 158.166 143.979C156.245 143.979 154.684 142.333 154.684 140.307C154.684 138.281 156.245 136.635 158.166 136.635C160.093 136.635 161.649 138.281 161.649 140.307Z" fill="#F4CACA"/>
<path d="M179.767 140.307C179.767 142.338 178.206 143.979 176.285 143.979C174.363 143.979 172.802 142.333 172.802 140.307C172.802 138.281 174.363 136.635 176.285 136.635C178.206 136.635 179.767 138.281 179.767 140.307Z" fill="#F4CACA"/>
<path d="M197.881 140.307C197.881 142.338 196.319 143.979 194.398 143.979C192.476 143.979 190.915 142.333 190.915 140.307C190.915 138.281 192.476 136.635 194.398 136.635C196.319 136.635 197.881 138.281 197.881 140.307Z" fill="#F4CACA"/>
<path d="M216 140.307C216 142.338 214.438 143.979 212.517 143.979C210.596 143.979 209.034 142.333 209.034 140.307C209.034 138.281 210.596 136.635 212.517 136.635C214.438 136.635 216 138.281 216 140.307Z" fill="#F4CACA"/>
<path d="M6.96562 151.328C6.96562 153.354 5.40418 155 3.48281 155C1.56143 155 0 153.354 0 151.328C0 149.297 1.56143 147.656 3.48281 147.656C5.40418 147.656 6.96562 149.297 6.96562 151.328Z" fill="#F4CACA"/>
<path d="M25.0848 151.328C25.0848 153.354 23.5233 155 21.6019 155C19.6806 155 18.1191 153.354 18.1191 151.328C18.1191 149.297 19.6806 147.656 21.6019 147.656C23.5233 147.656 25.0848 149.297 25.0848 151.328Z" fill="#F4CACA"/>
<path d="M43.198 151.328C43.198 153.354 41.6366 155 39.7152 155C37.7939 155 36.2324 153.354 36.2324 151.328C36.2324 149.297 37.7939 147.656 39.7152 147.656C41.6366 147.656 43.198 149.297 43.198 151.328Z" fill="#F4CACA"/>
<path d="M61.3162 151.328C61.3162 153.354 59.7548 155 57.8334 155C55.907 155 54.3506 153.354 54.3506 151.328C54.3506 149.297 55.912 147.656 57.8334 147.656C59.7548 147.656 61.3162 149.297 61.3162 151.328Z" fill="#F4CACA"/>
<path d="M79.4305 151.328C79.4305 153.354 77.869 155 75.9476 155C74.0212 155 72.4648 153.354 72.4648 151.328C72.4648 149.297 74.0263 147.656 75.9476 147.656C77.8741 147.656 79.4305 149.297 79.4305 151.328Z" fill="#F4CACA"/>
<path d="M97.5486 151.328C97.5486 153.354 95.9872 155 94.0658 155C92.1394 155 90.583 153.354 90.583 151.328C90.583 149.297 92.1444 147.656 94.0658 147.656C95.9872 147.656 97.5486 149.297 97.5486 151.328Z" fill="#F4CACA"/>
<path d="M115.663 151.328C115.663 153.354 114.101 155 112.18 155C110.259 155 108.697 153.354 108.697 151.328C108.697 149.297 110.259 147.656 112.18 147.656C114.101 147.656 115.663 149.297 115.663 151.328Z" fill="#F4CACA"/>
<path d="M133.781 151.328C133.781 153.354 132.22 155 130.298 155C128.377 155 126.815 153.354 126.815 151.328C126.815 149.297 128.377 147.656 130.298 147.656C132.22 147.656 133.781 149.297 133.781 151.328Z" fill="#F4CACA"/>
<path d="M151.895 151.328C151.895 153.354 150.334 155 148.412 155C146.486 155 144.93 153.354 144.93 151.328C144.93 149.297 146.491 147.656 148.412 147.656C150.334 147.656 151.895 149.297 151.895 151.328Z" fill="#F4CACA"/>
<path d="M170.013 151.328C170.013 153.354 168.452 155 166.531 155C164.609 155 163.048 153.354 163.048 151.328C163.048 149.297 164.609 147.656 166.531 147.656C168.452 147.656 170.013 149.297 170.013 151.328Z" fill="#F4CACA"/>
<path d="M188.128 151.328C188.128 153.354 186.566 155 184.645 155C182.718 155 181.162 153.354 181.162 151.328C181.162 149.297 182.724 147.656 184.645 147.656C186.566 147.656 188.128 149.297 188.128 151.328Z" fill="#F4CACA"/>
<path d="M206.241 151.328C206.241 153.354 204.68 155 202.758 155C200.837 155 199.275 153.354 199.275 151.328C199.275 149.297 200.837 147.656 202.758 147.656C204.68 147.656 206.241 149.297 206.241 151.328Z" fill="#F4CACA"/>
</g>
<defs>
<clipPath id="clip0_49_764">
<rect width="216" height="155" fill="white"/>
</clipPath>
</defs>
</svg>
