<svg width="35" height="36" viewBox="0 0 35 36" fill="none" xmlns="http://www.w3.org/2000/svg">
<path d="M27.3955 13.5454C27.4049 13.5513 27.4132 13.5588 27.42 13.5675C27.4221 13.5773 27.4226 13.5875 27.4215 13.5975L28.4155 13.7069L27.4215 13.5975C27.4198 13.6128 27.4144 13.6274 27.4058 13.64L13.1947 32.2238L13.1767 32.2474L13.1601 32.272C13.1518 32.2842 13.1408 32.2943 13.1279 32.3015C13.1224 32.3046 13.1166 32.3071 13.1106 32.309C13.1007 32.3071 13.0911 32.3044 13.0816 32.3011C13.065 32.2927 13.0512 32.2795 13.042 32.2632L12.1698 32.7523L13.042 32.2632C13.0319 32.2453 13.0281 32.2245 13.031 32.2041C13.031 32.2039 13.031 32.2037 13.0311 32.2034L15.0212 19.2456L15.1981 18.0938H14.0328H8.75H8.73654L8.7231 18.0941C8.70875 18.0945 8.6945 18.0916 8.68145 18.0856C8.6684 18.0796 8.6569 18.0707 8.64784 18.0596L7.93879 18.636L8.64784 18.0596C8.63878 18.0484 8.6324 18.0353 8.6292 18.0213C8.62599 18.0073 8.62604 17.9928 8.62935 17.9788L8.62937 17.9788L8.63064 17.9733L11.9108 3.75935C11.9109 3.759 11.9109 3.75864 11.911 3.75829C11.9161 3.73775 11.928 3.71953 11.9448 3.7066C11.9619 3.69346 11.983 3.68659 12.0045 3.68717L12.0179 3.68752H12.0312L22.9687 3.68753L22.9721 3.68752C22.9862 3.68747 23 3.69056 23.0126 3.69657C23.0253 3.70257 23.0365 3.71133 23.0453 3.72221L23.0461 3.72327C23.0551 3.73427 23.0614 3.74715 23.0647 3.76095L23.0647 3.76096C23.0679 3.77476 23.068 3.78911 23.0649 3.80295L23.0645 3.80484L21.1723 12.3142L20.9016 13.5313H22.1484L27.3437 13.5313L27.3457 13.5313C27.3633 13.5312 27.3805 13.5361 27.3955 13.5454Z" stroke="white" stroke-width="2"/>
</svg>
