<svg width="35" height="36" viewBox="0 0 35 36" fill="none" xmlns="http://www.w3.org/2000/svg">
<path d="M9.24875 14.7012C9.8875 15.3487 10.2594 16.1953 10.4891 17.0419C10.9375 18.6869 10.9375 20.7213 10.9375 22.2941V22.375C10.9375 26.8769 10.0953 29.55 9.14156 31.1403C8.78019 31.7658 8.30715 32.3196 7.74594 32.7744C7.5227 32.9471 7.28051 33.0939 7.02406 33.2119C7.02406 33.2119 6.74625 33.3125 6.5625 33.3125C6.4048 33.3 6.24954 33.2661 6.10094 33.2119C5.84449 33.0939 5.6023 32.9471 5.37906 32.7744C4.81784 32.3196 4.34481 31.7658 3.98344 31.1403C3.02969 29.5522 2.1875 26.8769 2.1875 22.375V22.2962C2.1875 20.7212 2.1875 18.6891 2.63594 17.0397C2.86563 16.1953 3.2375 15.3487 3.87625 14.6991C2.84375 13.7212 2.1875 12.1637 2.1875 10.3437C2.1875 9.63062 2.37781 8.77969 2.64031 7.99437C2.90281 7.20906 3.27031 6.39312 3.69469 5.73687C4.2 4.88375 4.91094 4.16844 5.46219 3.68719C5.76552 3.42273 6.08085 3.17236 6.40719 2.93687L6.47281 2.89312L6.4925 2.87781L6.49906 2.87344L6.50344 2.87125C6.7041 2.73468 6.94448 2.66874 7.18674 2.68381C7.42899 2.69888 7.65935 2.79411 7.84154 2.95449C8.02373 3.11488 8.14739 3.33131 8.19305 3.5697C8.23871 3.80809 8.20378 4.05489 8.09375 4.27125C8.07454 4.33435 8.06495 4.39998 8.06531 4.46594C8.06531 4.60375 8.10031 4.86625 8.43062 5.19437C8.59031 5.35406 8.71281 5.46781 8.84625 5.5925C8.95562 5.69312 9.07156 5.79812 9.21812 5.9425C9.5025 6.21375 9.80219 6.53312 10.0712 6.93344C10.6291 7.77125 10.9375 8.81906 10.9375 10.3437C10.9375 12.1637 10.2812 13.7191 9.24875 14.7012ZM6.5625 15.8125C6.01562 15.8125 5.6875 15.9831 5.44031 16.2281C5.16469 16.5059 4.92625 16.9566 4.74687 17.615C4.38375 18.9516 4.375 20.7059 4.375 22.375C4.375 26.6231 5.17344 28.8719 5.86031 30.0159C6.12281 30.4534 6.37 30.7356 6.5625 30.9128C6.8388 30.6495 7.07533 30.3473 7.26469 30.0159C7.95156 28.8697 8.75 26.6231 8.75 22.375C8.75 20.7059 8.74125 18.9516 8.37812 17.615C8.19875 16.9587 7.96031 16.5059 7.68469 16.2281C7.4375 15.9831 7.10719 15.8125 6.5625 15.8125ZM4.375 10.3437C4.375 12.6887 5.72031 13.625 6.5625 13.625C7.40469 13.625 8.75 12.6887 8.75 10.3437C8.75 9.13406 8.51156 8.54125 8.24906 8.1475C8.08903 7.91785 7.90497 7.70592 7.7 7.51531L7.42875 7.26156C7.24349 7.0919 7.06118 6.91906 6.88187 6.74312C6.64325 6.50582 6.43793 6.23722 6.27156 5.94469C5.99321 6.23754 5.74818 6.56035 5.54094 6.90719C5.23469 7.3775 4.93719 8.02281 4.71625 8.68781C4.48875 9.36594 4.375 9.96531 4.375 10.3437ZM15.3081 24.5034C14.5499 24.4188 13.804 24.2463 13.0856 23.9894C13.1119 23.441 13.125 22.8737 13.125 22.2875V21.64C13.8031 21.9616 14.5381 22.1869 15.3081 22.2962V18C15.3081 16.8397 15.7691 15.7269 16.5895 14.9064C17.41 14.0859 18.5228 13.625 19.6831 13.625H23.9816C23.8076 12.4155 23.3466 11.2652 22.6372 10.2703C21.9278 9.27539 20.9906 8.46471 19.9038 7.90603C18.8171 7.34735 17.6124 7.0569 16.3905 7.05895C15.1686 7.061 13.9649 7.35549 12.88 7.91781C12.7082 7.20267 12.4247 6.51907 12.04 5.89219C13.4578 5.1915 15.0235 4.84272 16.6046 4.87537C18.1858 4.90803 19.7358 5.32115 21.1234 6.07978C22.511 6.83841 23.6955 7.92021 24.5764 9.2336C25.4574 10.547 26.0089 12.0533 26.1844 13.625H28.4309C29.5913 13.625 30.7041 14.0859 31.5245 14.9064C32.345 15.7269 32.8059 16.8397 32.8059 18V26.75C32.8059 27.9103 32.345 29.0231 31.5245 29.8436C30.7041 30.6641 29.5913 31.125 28.4309 31.125H19.6809C18.5206 31.125 17.4078 30.6641 16.5873 29.8436C15.7669 29.0231 15.3059 27.9103 15.3059 26.75L15.3081 24.5034ZM26.1866 15.8125C25.9388 18.0322 24.9435 20.1017 23.3642 21.681C21.7848 23.2604 19.7153 24.2557 17.4956 24.5034V26.75C17.4956 27.3302 17.7261 27.8866 18.1363 28.2968C18.5466 28.707 19.103 28.9375 19.6831 28.9375H28.4331C29.0133 28.9375 29.5697 28.707 29.9799 28.2968C30.3902 27.8866 30.6206 27.3302 30.6206 26.75V18C30.6206 17.4198 30.3902 16.8634 29.9799 16.4532C29.5697 16.043 29.0133 15.8125 28.4331 15.8125H26.1866ZM23.9816 15.8125H19.6831C19.103 15.8125 18.5466 16.043 18.1363 16.4532C17.7261 16.8634 17.4956 17.4198 17.4956 18V22.2984C19.1321 22.0626 20.6483 21.3034 21.8174 20.1343C22.9865 18.9651 23.7457 17.449 23.9816 15.8125Z" fill="white"/>
</svg>
