<svg width="35" height="36" viewBox="0 0 35 36" fill="none" xmlns="http://www.w3.org/2000/svg">
<path d="M24.7916 19.4583C25.9453 19.4583 27.0732 19.8005 28.0324 20.4414C28.9917 21.0824 29.7394 21.9934 30.1809 23.0593C30.6224 24.1252 30.738 25.2981 30.5129 26.4297C30.2878 27.5612 29.7322 28.6006 28.9164 29.4165C28.1006 30.2323 27.0612 30.7878 25.9297 31.0129C24.7981 31.238 23.6252 31.1225 22.5593 30.681C21.4934 30.2395 20.5824 29.4918 19.9414 28.5325C19.3004 27.5732 18.9583 26.4454 18.9583 25.2917H16.0416C16.0411 26.7069 15.526 28.0737 14.5925 29.1373C13.659 30.201 12.3706 30.889 10.9674 31.0731C9.56416 31.2573 8.14187 30.925 6.96547 30.1383C5.78907 29.3516 4.93881 28.164 4.57309 26.7968C4.20738 25.4297 4.35116 23.9762 4.97764 22.7071C5.60412 21.4381 6.67058 20.4401 7.97831 19.8991C9.28605 19.3581 10.7459 19.311 12.0858 19.7665C13.4257 20.222 14.5544 21.1491 15.2614 22.375H19.7385C20.2506 21.488 20.9872 20.7515 21.8742 20.2395C22.7612 19.7275 23.7674 19.4581 24.7916 19.4583ZM10.2083 22.375C9.43474 22.375 8.69288 22.6823 8.1459 23.2293C7.59892 23.7763 7.29163 24.5181 7.29163 25.2917C7.29163 26.0652 7.59892 26.8071 8.1459 27.3541C8.69288 27.901 9.43474 28.2083 10.2083 28.2083C10.9818 28.2083 11.7237 27.901 12.2707 27.3541C12.8177 26.8071 13.125 26.0652 13.125 25.2917C13.125 24.5181 12.8177 23.7763 12.2707 23.2293C11.7237 22.6823 10.9818 22.375 10.2083 22.375ZM24.7916 22.375C24.0181 22.375 23.2762 22.6823 22.7292 23.2293C22.1822 23.7763 21.875 24.5181 21.875 25.2917C21.875 26.0652 22.1822 26.8071 22.7292 27.3541C23.2762 27.901 24.0181 28.2083 24.7916 28.2083C25.5652 28.2083 26.307 27.901 26.854 27.3541C27.401 26.8071 27.7083 26.0652 27.7083 25.2917C27.7083 24.5181 27.401 23.7763 26.854 23.2293C26.307 22.6823 25.5652 22.375 24.7916 22.375ZM23.3333 4.875C24.8804 4.875 26.3641 5.48958 27.4581 6.58354C28.552 7.67751 29.1666 9.16124 29.1666 10.7083V15.0833H32.0833V18H2.91663V15.0833H5.83329V10.7083C5.83329 9.16124 6.44787 7.67751 7.54184 6.58354C8.6358 5.48958 10.1195 4.875 11.6666 4.875H23.3333ZM23.3333 7.79167H11.6666C10.1295 7.79167 8.74996 9.17708 8.74996 10.7083V15.0833H26.25V10.7083C26.25 9.17125 24.8645 7.79167 23.3333 7.79167Z" fill="white"/>
</svg>
