<svg width="36" height="36" viewBox="0 0 36 36" fill="none" xmlns="http://www.w3.org/2000/svg">
<path d="M18 10.7084C18.8054 10.7084 19.4584 10.0554 19.4584 9.25002C19.4584 8.44461 18.8054 7.79169 18 7.79169C17.1946 7.79169 16.5417 8.44461 16.5417 9.25002C16.5417 10.0554 17.1946 10.7084 18 10.7084Z" fill="white"/>
<path d="M9.25 25.2917H26.75V28.2084H9.25V25.2917ZM15.0833 17.7521L19.155 21.8267L24.8892 16.0881L26.75 18V12.1667H20.9167L22.8271 14.0261L19.1535 17.6996L15.0833 13.625L9.25 19.4584L11.3121 21.5204L15.0833 17.7521Z" fill="white"/>
<path d="M28.2084 4.87502H23.3988C23.2543 4.66029 23.0985 4.4534 22.9321 4.25523L22.9175 4.23773C21.8457 2.99023 20.3384 2.19851 18.7029 2.02398C18.2384 1.93634 17.7616 1.93634 17.2971 2.02398C15.6617 2.19851 14.1544 2.99023 13.0825 4.23773L13.0679 4.25523C12.9015 4.45292 12.7458 4.65933 12.6013 4.87356V4.87502H7.79169C6.63172 4.87618 5.51959 5.33748 4.69937 6.15771C3.87915 6.97793 3.41785 8.09005 3.41669 9.25002V29.6667C3.41785 30.8267 3.87915 31.9388 4.69937 32.759C5.51959 33.5792 6.63172 34.0405 7.79169 34.0417H28.2084C29.3683 34.0405 30.4804 33.5792 31.3007 32.759C32.1209 31.9388 32.5822 30.8267 32.5834 29.6667V9.25002C32.5822 8.09005 32.1209 6.97793 31.3007 6.15771C30.4804 5.33748 29.3683 4.87618 28.2084 4.87502ZM29.6667 29.6667C29.6667 30.0535 29.513 30.4244 29.2396 30.6979C28.9661 30.9714 28.5951 31.125 28.2084 31.125H7.79169C7.40491 31.125 7.03398 30.9714 6.76049 30.6979C6.487 30.4244 6.33335 30.0535 6.33335 29.6667V9.25002C6.33335 8.86324 6.487 8.49231 6.76049 8.21882C7.03398 7.94533 7.40491 7.79169 7.79169 7.79169H14.4271C14.5945 6.96752 15.0416 6.22655 15.6927 5.69433C16.3439 5.16211 17.159 4.87136 18 4.87136C18.841 4.87136 19.6561 5.16211 20.3073 5.69433C20.9584 6.22655 21.4056 6.96752 21.5729 7.79169H28.2084C28.5951 7.79169 28.9661 7.94533 29.2396 8.21882C29.513 8.49231 29.6667 8.86324 29.6667 9.25002V29.6667Z" fill="white"/>
</svg>
