<svg width="30" height="30" viewBox="0 0 30 30" fill="none" xmlns="http://www.w3.org/2000/svg">
<path d="M16.542 0C18.2294 0.00449977 19.0859 0.0134993 19.8254 0.0344983L20.1163 0.0449977C20.4523 0.0569971 20.7838 0.0719963 21.1843 0.0899954C22.7802 0.164992 23.8691 0.416979 24.8246 0.78746C25.8145 1.16844 26.6485 1.68441 27.4825 2.51687C28.2455 3.26643 28.8357 4.1735 29.2119 5.17474C29.5824 6.13019 29.8343 7.21914 29.9093 8.81656C29.9273 9.21553 29.9423 9.54702 29.9543 9.8845L29.9633 10.1755C29.9858 10.9135 29.9948 11.7699 29.9978 13.4573L29.9993 14.5763V16.5412C30.003 17.6352 29.9915 18.7293 29.9648 19.823L29.9558 20.114C29.9438 20.4515 29.9288 20.783 29.9108 21.1819C29.8358 22.7794 29.5809 23.8668 29.2119 24.8237C28.8357 25.825 28.2455 26.7321 27.4825 27.4816C26.7329 28.2446 25.8258 28.8348 24.8246 29.211C23.8691 29.5815 22.7802 29.8335 21.1843 29.9085L20.1163 29.9535L19.8254 29.9625C19.0859 29.9835 18.2294 29.994 16.542 29.997L15.4231 29.9985H13.4597C12.3651 30.0023 11.2706 29.9908 10.1763 29.964L9.88535 29.955C9.52929 29.9415 9.1733 29.926 8.81741 29.9085C7.22149 29.8335 6.13254 29.5815 5.17559 29.211C4.17489 28.8346 3.26835 28.2444 2.51923 27.4816C1.75568 26.7322 1.16496 25.8251 0.788314 24.8237C0.417832 23.8683 0.165845 22.7794 0.0908485 21.1819L0.0458508 20.114L0.0383514 19.823C0.0107019 18.7293 -0.00179885 17.6352 0.000853152 16.5412V13.4573C-0.00329848 12.3633 0.00770213 11.2692 0.0338516 10.1755L0.044351 9.8845C0.0563504 9.54702 0.0713496 9.21553 0.0893487 8.81656C0.164345 7.21914 0.416332 6.13169 0.786813 5.17474C1.16434 4.17309 1.7561 3.26599 2.52073 2.51687C3.26942 1.75423 4.17542 1.16405 5.17559 0.78746C6.13254 0.416979 7.21999 0.164992 8.81741 0.0899954C9.21639 0.0719963 9.54937 0.0569971 9.88535 0.0449977L10.1763 0.0359981C11.2701 0.00934859 12.3641 -0.00215194 13.4582 0.00149982L16.542 0ZM15.0001 7.49962C13.0111 7.49962 11.1035 8.28976 9.69706 9.69621C8.29061 11.1027 7.50047 13.0102 7.50047 14.9992C7.50047 16.9883 8.29061 18.8958 9.69706 20.3023C11.1035 21.7087 13.0111 22.4989 15.0001 22.4989C16.9891 22.4989 18.8967 21.7087 20.3031 20.3023C21.7096 18.8958 22.4997 16.9883 22.4997 14.9992C22.4997 13.0102 21.7096 11.1027 20.3031 9.69621C18.8967 8.28976 16.9891 7.49962 15.0001 7.49962ZM15.0001 10.4995C15.591 10.4994 16.1762 10.6157 16.7221 10.8417C17.2681 11.0678 17.7642 11.3991 18.1821 11.8169C18.6 12.2347 18.9316 12.7307 19.1578 13.2766C19.384 13.8225 19.5005 14.4076 19.5006 14.9985C19.5007 15.5894 19.3844 16.1746 19.1584 16.7205C18.9323 17.2665 18.601 17.7626 18.1832 18.1805C17.7654 18.5984 17.2694 18.93 16.7235 19.1562C16.1776 19.3824 15.5925 19.4989 15.0016 19.499C13.8082 19.499 12.6636 19.0249 11.8198 18.1811C10.9759 17.3372 10.5018 16.1927 10.5018 14.9992C10.5018 13.8058 10.9759 12.6613 11.8198 11.8174C12.6636 10.9736 13.8082 10.4995 15.0016 10.4995M22.8762 5.24973C22.3789 5.24973 21.9021 5.44727 21.5504 5.79888C21.1988 6.1505 21.0013 6.62738 21.0013 7.12464C21.0013 7.6219 21.1988 8.09879 21.5504 8.4504C21.9021 8.80201 22.3789 8.99955 22.8762 8.99955C23.3735 8.99955 23.8503 8.80201 24.202 8.4504C24.5536 8.09879 24.7511 7.6219 24.7511 7.12464C24.7511 6.62738 24.5536 6.1505 24.202 5.79888C23.8503 5.44727 23.3735 5.24973 22.8762 5.24973Z" fill="#B03335"/>
</svg>
