<svg width="36" height="36" viewBox="0 0 36 36" fill="none" xmlns="http://www.w3.org/2000/svg">
<path d="M28.5 7.48602C28.5002 8.04295 28.3674 8.59188 28.1128 9.08719C27.8581 9.58251 27.489 10.0099 27.036 10.3339C26.583 10.6578 26.0592 10.869 25.5081 10.9499C24.9571 11.0307 24.3947 10.9789 23.8678 10.7988L21.6208 14.199C22.62 15.151 23.2447 16.4933 23.25 17.9825L25.2975 18.336C25.6413 17.5566 26.2575 16.9293 27.0307 16.5718C27.8039 16.2142 28.6809 16.1509 29.4975 16.3937C30.314 16.6365 31.0139 17.1688 31.4661 17.8908C31.9182 18.6127 32.0916 19.4748 31.9536 20.3154C31.8156 21.156 31.3758 21.9175 30.7166 22.457C30.0574 22.9965 29.224 23.2771 28.3727 23.2462C27.5214 23.2153 26.7106 22.8749 26.0923 22.289C25.474 21.703 25.0906 20.9117 25.014 20.0633L22.9665 19.708C22.5351 20.9645 21.6433 22.0107 20.471 22.6358L21.248 25.0105C21.332 25.0035 21.416 25 21.5 25C22.341 25.0003 23.1538 25.3034 23.7896 25.8538C24.4255 26.4043 24.8419 27.1653 24.9626 27.9976C25.0833 28.8299 24.9003 29.6778 24.4471 30.3863C23.9939 31.0947 23.3007 31.6162 22.4944 31.8554C21.6881 32.0947 20.8227 32.0356 20.0564 31.689C19.2902 31.3424 18.6743 30.7315 18.3216 29.968C17.9688 29.2045 17.9028 28.3396 18.1355 27.5314C18.3683 26.7233 18.8842 26.0259 19.589 25.567L18.8103 23.187C17.8633 23.3347 16.894 23.2203 16.0074 22.8563C15.1208 22.4923 14.3507 21.8925 13.7808 21.122L10.9195 22.501C10.9732 22.7425 11 22.9922 11 23.25C11.0002 24.0695 10.713 24.863 10.1882 25.4924C9.66349 26.1218 8.93455 26.5471 8.12844 26.6942C7.32232 26.8413 6.49013 26.701 5.77689 26.2975C5.06364 25.8941 4.51455 25.2532 4.2253 24.4865C3.93605 23.7198 3.92498 22.876 4.19401 22.102C4.46305 21.328 4.99513 20.6729 5.69755 20.2509C6.39997 19.8289 7.22818 19.6667 8.03788 19.7927C8.84758 19.9186 9.58743 20.3246 10.1285 20.94L12.9862 19.5628C12.7151 18.6923 12.6753 17.7663 12.8708 16.8758C13.0663 15.9854 13.4902 15.1611 14.101 14.4843L12.4648 12.4298C11.6909 12.786 10.8138 12.8478 9.99765 12.6035C9.18154 12.3593 8.48253 11.8258 8.03164 11.103C7.58074 10.3802 7.40893 9.51784 7.5484 8.67746C7.68786 7.83708 8.12904 7.07641 8.78923 6.53804C9.44941 5.99967 10.2833 5.72055 11.1345 5.75301C11.9858 5.78548 12.796 6.12728 13.4133 6.71437C14.0305 7.30146 14.4125 8.09351 14.4876 8.94207C14.5626 9.79064 14.3256 10.6374 13.821 11.3238L15.473 13.3975C16.222 12.9863 17.083 12.75 18 12.75C18.7735 12.75 19.5085 12.9163 20.17 13.2173L22.4065 9.83452C22.0248 9.41335 21.7515 8.90557 21.6101 8.35507C21.4686 7.80457 21.4634 7.22791 21.5949 6.67493C21.7263 6.12196 21.9904 5.60932 22.3644 5.18131C22.7384 4.75331 23.211 4.42282 23.7413 4.21841C24.2717 4.01401 24.8438 3.94185 25.4083 4.00815C25.9728 4.07446 26.5127 4.27724 26.9812 4.59898C27.4498 4.92071 27.8329 5.35172 28.0975 5.85473C28.3621 6.35775 28.5003 6.91764 28.5 7.48602ZM26.75 7.48602C26.75 7.02189 26.5656 6.57677 26.2374 6.24858C25.9092 5.9204 25.4641 5.73602 25 5.73602C24.5359 5.73602 24.0908 5.9204 23.7626 6.24858C23.4344 6.57677 23.25 7.02189 23.25 7.48602C23.25 7.95015 23.4344 8.39527 23.7626 8.72346C24.0908 9.05165 24.5359 9.23602 25 9.23602C25.4641 9.23602 25.9092 9.05165 26.2374 8.72346C26.5656 8.39527 26.75 7.95015 26.75 7.48602ZM11 11.0018C11.4641 11.0018 11.9092 10.8174 12.2374 10.4892C12.5656 10.161 12.75 9.7159 12.75 9.25177C12.75 8.78764 12.5656 8.34252 12.2374 8.01433C11.9092 7.68615 11.4641 7.50177 11 7.50177C10.5359 7.50177 10.0908 7.68615 9.76256 8.01433C9.43437 8.34252 9.25 8.78764 9.25 9.25177C9.25 9.7159 9.43437 10.161 9.76256 10.4892C10.0908 10.8174 10.5359 11.0018 11 11.0018ZM18 21.5018C18.9283 21.5018 19.8185 21.133 20.4749 20.4766C21.1313 19.8203 21.5 18.93 21.5 18.0018C21.5 17.0735 21.1313 16.1833 20.4749 15.5269C19.8185 14.8705 18.9283 14.5018 18 14.5018C17.0717 14.5018 16.1815 14.8705 15.5251 15.5269C14.8687 16.1833 14.5 17.0735 14.5 18.0018C14.5 18.93 14.8687 19.8203 15.5251 20.4766C16.1815 21.133 17.0717 21.5018 18 21.5018ZM9.25 23.2518C9.25 22.7876 9.06563 22.3425 8.73744 22.0143C8.40925 21.6861 7.96413 21.5018 7.5 21.5018C7.03587 21.5018 6.59075 21.6861 6.26256 22.0143C5.93437 22.3425 5.75 22.7876 5.75 23.2518C5.75 23.7159 5.93437 24.161 6.26256 24.4892C6.59075 24.8174 7.03587 25.0018 7.5 25.0018C7.96413 25.0018 8.40925 24.8174 8.73744 24.4892C9.06563 24.161 9.25 23.7159 9.25 23.2518ZM23.25 28.5018C23.25 28.0376 23.0656 27.5925 22.7374 27.2643C22.4092 26.9361 21.9641 26.7518 21.5 26.7518C21.0359 26.7518 20.5908 26.9361 20.2626 27.2643C19.9344 27.5925 19.75 28.0376 19.75 28.5018C19.75 28.9659 19.9344 29.411 20.2626 29.7392C20.5908 30.0674 21.0359 30.2518 21.5 30.2518C21.9641 30.2518 22.4092 30.0674 22.7374 29.7392C23.0656 29.411 23.25 28.9659 23.25 28.5018ZM28.5 21.5018C28.9641 21.5018 29.4093 21.3174 29.7374 20.9892C30.0656 20.661 30.25 20.2159 30.25 19.7518C30.25 19.2876 30.0656 18.8425 29.7374 18.5143C29.4093 18.1861 28.9641 18.0018 28.5 18.0018C28.0359 18.0018 27.5908 18.1861 27.2626 18.5143C26.9344 18.8425 26.75 19.2876 26.75 19.7518C26.75 20.2159 26.9344 20.661 27.2626 20.9892C27.5908 21.3174 28.0359 21.5018 28.5 21.5018Z" fill="white"/>
</svg>
