<svg width="35" height="36" viewBox="0 0 35 36" fill="none" xmlns="http://www.w3.org/2000/svg">
<g clip-path="url(#clip0_246_6997)">
<path d="M25.8416 31.6111H8.34161C8.08376 31.6111 7.83647 31.7135 7.65414 31.8958C7.47182 32.0782 7.36938 32.3255 7.36938 32.5833C7.36938 32.8412 7.47182 33.0884 7.65414 33.2708C7.83647 33.4531 8.08376 33.5555 8.34161 33.5555H25.8416C26.0995 33.5555 26.3467 33.4531 26.5291 33.2708C26.7114 33.0884 26.8138 32.8412 26.8138 32.5833C26.8138 32.3255 26.7114 32.0782 26.5291 31.8958C26.3467 31.7135 26.0995 31.6111 25.8416 31.6111Z" fill="white"/>
<path d="M17.257 2.44446C13.6471 2.44446 10.1851 3.87848 7.63248 6.43106C5.0799 8.98364 3.64587 12.4457 3.64587 16.0556C3.64587 16.4931 3.64587 16.9208 3.71393 17.3486C3.96446 19.9739 4.97224 22.4698 6.61477 24.533C8.25729 26.5962 10.4638 28.1378 12.9661 28.9705C15.4684 29.8031 18.1587 29.8909 20.7099 29.2231C23.2611 28.5554 25.5635 27.1609 27.337 25.2091C29.1105 23.2573 30.2788 20.8324 30.6999 18.2291C31.1211 15.6257 30.7768 12.9561 29.7091 10.5448C28.6414 8.1334 26.8961 6.08415 24.6855 4.64611C22.4749 3.20808 19.8942 2.4432 17.257 2.44446ZM17.257 4.3889C20.3311 4.39157 23.2799 5.60744 25.4625 7.77224V8.74446C21.62 7.42129 17.4427 7.43843 13.6112 8.79307C13.3051 8.49479 12.9208 8.28919 12.5028 8.20002H12.2598C12.1431 7.79168 12.0362 7.38335 11.9487 6.96529C11.8612 6.54724 11.8125 6.17779 11.7639 5.77918C13.4514 4.86761 15.339 4.38985 17.257 4.3889ZM14.3403 10.0958C17.8711 8.91349 21.6977 8.95803 25.2 10.2222C24.7263 12.6923 23.6919 15.0206 22.1764 17.0278C21.7525 16.8483 21.2833 16.8052 20.8338 16.9045C20.3843 17.0038 19.9769 17.2406 19.6681 17.582C19.3278 17.3875 18.9875 17.1931 18.6959 16.9695C16.7333 15.66 15.0942 13.9212 13.9028 11.8847C14.0954 11.646 14.2356 11.3694 14.3143 11.0729C14.393 10.7764 14.4085 10.4667 14.3598 10.1639L14.3403 10.0958ZM10.4514 6.59585C10.4514 6.80001 10.5098 7.0139 10.5487 7.21807C10.6362 7.64585 10.7528 8.0639 10.8695 8.48196C10.4972 8.70242 10.1975 9.02701 10.0075 9.41572C9.81748 9.80443 9.74536 10.2403 9.80004 10.6695C8.2652 11.6714 6.8944 12.9044 5.73615 14.325C5.96861 12.7867 6.50638 11.3105 7.31783 9.9831C8.12928 8.65573 9.19801 7.50406 10.4612 6.59585H10.4514ZM10.4514 21.8695C10.0719 21.9969 9.73271 22.2222 9.46812 22.5226C9.20353 22.823 9.0229 23.188 8.94448 23.5806H8.32226C6.75219 21.7079 5.81315 19.3875 5.63893 16.95L5.74587 16.7653C6.96331 14.8776 8.55488 13.2595 10.4223 12.0111C10.7022 12.3035 11.056 12.5148 11.4462 12.6226C11.8365 12.7305 12.2485 12.7308 12.6389 12.6236C13.9385 14.8218 15.7163 16.6992 17.8403 18.1167C18.2389 18.3792 18.6473 18.6222 19.0556 18.8556C19.0221 19.2275 19.0823 19.6018 19.2306 19.9445C17.452 21.3583 15.3995 22.3878 13.2028 22.9681C12.9481 22.4922 12.5325 22.1224 12.0303 21.9247C11.528 21.727 10.9719 21.7143 10.4612 21.8889L10.4514 21.8695ZM17.257 27.7028C15.2796 27.7042 13.3348 27.1988 11.6084 26.2347L11.8806 26.1764C12.2675 26.0495 12.6132 25.821 12.8817 25.5149C13.1502 25.2088 13.3316 24.8363 13.407 24.4361C15.8933 23.803 18.2143 22.6425 20.2125 21.0333C20.6873 21.3108 21.248 21.4028 21.7865 21.2915C22.325 21.1802 22.8033 20.8735 23.1292 20.4306C24.5009 20.7873 25.9119 20.9702 27.3292 20.975H27.8445C26.9065 22.992 25.4115 24.6988 23.5357 25.8942C21.6599 27.0896 19.4814 27.7239 17.257 27.7222V27.7028ZM23.5862 19.05C23.5852 18.6425 23.4744 18.2428 23.2653 17.8931C24.8833 15.7796 26.0093 13.3317 26.5612 10.7278C27.0473 10.9546 27.5269 11.2074 28 11.4861C29.0693 14.0128 29.2139 16.8356 28.4084 19.4583C26.7942 19.5832 25.1705 19.4552 23.5959 19.0792L23.5862 19.05Z" fill="white"/>
</g>
<defs>
<clipPath id="clip0_246_6997">
<rect width="35" height="35" fill="white" transform="translate(0 0.5)"/>
</clipPath>
</defs>
</svg>
