<svg width="35" height="36" viewBox="0 0 35 36" fill="none" xmlns="http://www.w3.org/2000/svg">
<path d="M17.5 20.9166V23.8333C15.1793 23.8333 12.9537 24.7552 11.3128 26.3961C9.67185 28.0371 8.74998 30.2627 8.74998 32.5833H5.83331C5.83331 29.4891 7.06248 26.5217 9.2504 24.3337C11.4383 22.1458 14.4058 20.9166 17.5 20.9166ZM17.5 19.4583C12.6656 19.4583 8.74998 15.5427 8.74998 10.7083C8.74998 5.87394 12.6656 1.95831 17.5 1.95831C22.3344 1.95831 26.25 5.87394 26.25 10.7083C26.25 15.5427 22.3344 19.4583 17.5 19.4583ZM17.5 16.5416C20.7229 16.5416 23.3333 13.9312 23.3333 10.7083C23.3333 7.4854 20.7229 4.87498 17.5 4.87498C14.2771 4.87498 11.6666 7.4854 11.6666 10.7083C11.6666 13.9312 14.2771 16.5416 17.5 16.5416ZM30.625 25.2916H32.0833V32.5833H20.4166V25.2916H21.875V23.8333C21.875 22.673 22.3359 21.5602 23.1564 20.7397C23.9769 19.9192 25.0897 19.4583 26.25 19.4583C27.4103 19.4583 28.5231 19.9192 29.3436 20.7397C30.164 21.5602 30.625 22.673 30.625 23.8333V25.2916ZM27.7083 25.2916V23.8333C27.7083 23.4465 27.5547 23.0756 27.2812 22.8021C27.0077 22.5286 26.6368 22.375 26.25 22.375C25.8632 22.375 25.4923 22.5286 25.2188 22.8021C24.9453 23.0756 24.7916 23.4465 24.7916 23.8333V25.2916H27.7083Z" fill="white"/>
</svg>
