<svg width="30" height="30" viewBox="0 0 30 30" fill="none" xmlns="http://www.w3.org/2000/svg">
<path d="M28.75 12.4375C28.75 11.7778 28.4866 11.1451 28.0178 10.6786C27.5489 10.2121 26.913 9.94999 26.25 9.94999H18.35L19.55 4.26606C19.575 4.14168 19.5875 4.00487 19.5875 3.86806C19.5875 3.35812 19.375 2.88549 19.0375 2.54968L17.7125 1.24374L9.4875 9.42762C9.025 9.8878 8.75 10.5097 8.75 11.1937V23.6312C8.75 24.291 9.01339 24.9237 9.48223 25.3902C9.95107 25.8567 10.587 26.1187 11.25 26.1187H22.5C23.5375 26.1187 24.425 25.4969 24.8 24.6014L28.575 15.8329C28.6875 15.5469 28.75 15.2484 28.75 14.925V12.4375ZM1.25 26.1187H6.25V11.1937H1.25V26.1187Z" fill="#323232" fill-opacity="0.5"/>
</svg>
