<svg width="33" height="32" viewBox="0 0 33 32" fill="none" xmlns="http://www.w3.org/2000/svg">
<g clip-path="url(#clip0_284_803)">
<path d="M20.2807 15.2L7.60352 12.8V30.56C7.60352 31.36 8.20009 32 8.94581 32H30.7954C31.5411 32 32.1377 31.36 32.1377 30.56V24L20.2807 15.2Z" fill="#185C37"/>
<path d="M20.2807 0H8.94581C8.20009 0 7.60352 0.64 7.60352 1.44V8L20.2807 16L26.9922 18.4L32.2122 16V8L20.2807 0Z" fill="#21A366"/>
<path d="M7.60352 8H20.2807V16H7.60352V8Z" fill="#107C41"/>
<path opacity="0.1" d="M16.7013 6.4H7.60352V26.4H16.7013C17.447 26.4 18.0436 25.76 18.0436 24.96V7.84C18.0436 7.04 17.447 6.4 16.7013 6.4Z" fill="black"/>
<path opacity="0.2" d="M15.9556 7.2H7.60352V27.2H15.9556C16.7013 27.2 17.2979 26.56 17.2979 25.76V8.64C17.2979 7.84 16.7013 7.2 15.9556 7.2Z" fill="black"/>
<path opacity="0.2" d="M15.9556 7.2H7.60352V25.6H15.9556C16.7013 25.6 17.2979 24.96 17.2979 24.16V8.64C17.2979 7.84 16.7013 7.2 15.9556 7.2Z" fill="black"/>
<path opacity="0.2" d="M15.2098 7.2H7.60352V25.6H15.2098C15.9556 25.6 16.5521 24.96 16.5521 24.16V8.64C16.5521 7.84 15.9556 7.2 15.2098 7.2Z" fill="black"/>
<path d="M1.48878 7.2H15.1354C15.8811 7.2 16.4777 7.84 16.4777 8.64V23.28C16.4777 24.08 15.8811 24.72 15.1354 24.72H1.48878C0.743059 24.72 0.146484 24.08 0.146484 23.28V8.64C0.146484 7.84 0.743059 7.2 1.48878 7.2Z" fill="url(#paint0_linear_284_803)"/>
<path d="M4.39697 20.8L7.30527 16L4.62069 11.2H6.7087L8.12556 14.24C8.27471 14.56 8.34928 14.72 8.42385 14.88C8.49842 14.64 8.64757 14.4 8.72214 14.24L10.2881 11.2H12.227L9.54243 15.92L12.3016 20.72H10.2136L8.573 17.36C8.49842 17.2 8.42385 17.04 8.34928 16.88C8.27471 17.04 8.20014 17.2 8.12556 17.28L6.48498 20.8H4.39697Z" fill="white"/>
<path d="M30.87 0H20.2808V8H32.2123V1.44C32.2123 0.64 31.6157 0 30.87 0Z" fill="#33C481"/>
<path d="M20.2808 16H32.2123V24H20.2808V16Z" fill="#107C41"/>
</g>
<defs>
<linearGradient id="paint0_linear_284_803" x1="2.99647" y1="6.05416" x2="14.8697" y2="25.2227" gradientUnits="userSpaceOnUse">
<stop stop-color="#18884F"/>
<stop offset="0.5" stop-color="#117E43"/>
<stop offset="1" stop-color="#0B6631"/>
</linearGradient>
<clipPath id="clip0_284_803">
<rect width="32.0659" height="32" fill="white" transform="translate(0.146484)"/>
</clipPath>
</defs>
</svg>
