<svg width="33" height="32" viewBox="0 0 33 32" fill="none" xmlns="http://www.w3.org/2000/svg">
<g clip-path="url(#clip0_284_790)">
<path d="M30.742 0H8.81788C8.07216 0 7.47559 0.64 7.47559 1.44V8L20.1528 12L32.0843 8V1.44C32.0843 0.64 31.4877 0 30.742 0Z" fill="#41A5EE"/>
<path d="M32.0843 8H7.47559V16L20.1528 18.4L32.0843 16V8Z" fill="#2B7CD3"/>
<path d="M7.47559 16V24L19.4071 25.6L32.0843 24V16H7.47559Z" fill="#185ABD"/>
<path d="M8.81788 32H30.6674C31.4131 32 32.0097 31.36 32.0097 30.56V24H7.47559V30.56C7.47559 31.36 8.07216 32 8.81788 32Z" fill="#103F91"/>
<path opacity="0.1" d="M16.5733 6.4H7.47559V26.4H16.5733C17.3191 26.4 17.9156 25.76 17.9156 24.96V7.84C17.9156 7.04 17.3191 6.4 16.5733 6.4Z" fill="black"/>
<path opacity="0.2" d="M15.8276 7.2H7.47559V27.2H15.8276C16.5734 27.2 17.1699 26.56 17.1699 25.76V8.64C17.1699 7.84 16.5734 7.2 15.8276 7.2Z" fill="black"/>
<path opacity="0.2" d="M15.8276 7.2H7.47559V25.6H15.8276C16.5734 25.6 17.1699 24.96 17.1699 24.16V8.64C17.1699 7.84 16.5734 7.2 15.8276 7.2Z" fill="black"/>
<path opacity="0.2" d="M15.0819 7.2H7.47559V25.6H15.0819C15.8276 25.6 16.4242 24.96 16.4242 24.16V8.64C16.4242 7.84 15.8276 7.2 15.0819 7.2Z" fill="black"/>
<path d="M1.36085 7.2H15.0075C15.7532 7.2 16.3498 7.84 16.3498 8.64V23.28C16.3498 24.08 15.7532 24.72 15.0075 24.72H1.36085C0.615129 24.72 0.0185547 24.08 0.0185547 23.28V8.64C0.0185547 7.84 0.615129 7.2 1.36085 7.2Z" fill="url(#paint0_linear_284_790)"/>
<path d="M5.61164 18.48C5.61164 18.72 5.68622 18.88 5.68622 19.04C5.68622 18.88 5.68622 18.72 5.76079 18.48C5.83536 18.24 5.83536 18.08 5.83536 17.92L7.3268 11.2H9.19109L10.6825 17.76C10.7571 18.16 10.8317 18.56 10.8317 18.96C10.8317 18.56 10.9062 18.16 10.9808 17.76L12.174 11.2H13.8891L11.8011 20.8H9.78767L8.3708 14.48C8.29623 14.32 8.29623 14.08 8.22166 13.76C8.14709 13.44 8.22166 13.2 8.22166 13.12C8.22166 13.28 8.14709 13.52 8.14709 13.84C8.14709 14.16 8.07251 14.4 7.99794 14.48L6.65565 20.8H4.64221L2.5542 11.2H4.26935L5.53707 17.84C5.53707 18 5.61164 18.24 5.61164 18.48Z" fill="white"/>
</g>
<defs>
<linearGradient id="paint0_linear_284_790" x1="2.86854" y1="6.05416" x2="14.7418" y2="25.2227" gradientUnits="userSpaceOnUse">
<stop stop-color="#2368C4"/>
<stop offset="0.5" stop-color="#1A5DBE"/>
<stop offset="1" stop-color="#1146AC"/>
</linearGradient>
<clipPath id="clip0_284_790">
<rect width="32.0659" height="32" fill="white" transform="translate(0.0185547)"/>
</clipPath>
</defs>
</svg>
